<?xml version="1.0" encoding="utf-8"?>
<!-- Generator: Adobe Illustrator 24.1.3, SVG Export Plug-In . SVG Version: 6.00 Build 0)  -->
<svg version="1.1" id="_x32_6e08365-e7f3-4f87-b2fd-e29738693ebb"
	 xmlns="http://www.w3.org/2000/svg" xmlns:xlink="http://www.w3.org/1999/xlink" x="0px" y="0px" viewBox="0 0 999 797.3"
	 style="enable-background:new 0 0 999 797.3;" xml:space="preserve">
<style type="text/css">
	.st0{fill:#3B2D51;}
	.st1{fill:#732C84;}
	.st2{fill:#AB56BF;}
	.st3{fill:#DDCBA6;}
	.st4{fill:#BF63D6;}
	.st5{fill:#EFE3CA;}
	.st6{opacity:0.45;}
	.st7{fill:#FFFFFF;}
	.st8{opacity:0.6;fill:#C94343;}
	.st9{fill:#964532;}
	.st10{fill:#7F3425;}
	.st11{fill:#FFB94A;}
	.st12{fill:#DB2828;}
	.st13{fill:#ED4848;}
	.st14{fill:#FFE9CA;}
	.st15{fill:#6D2D4A;}
	.st16{fill:#934769;}
	.st17{fill:#FF9566;}
	.st18{fill:#FFB882;}
	.st19{fill:#EADDBE;}
	.st20{fill:#F4E9D3;}
	.st21{fill:#D8C091;}
	.st22{fill:#7C3552;}
	.st23{fill:#DBC7A1;}
	.st24{fill:#E0D0B1;}
	.st25{fill:#FF9A3E;}
	.st26{fill:#ED8129;}
	.st27{fill:#F4E9D4;}
	.st28{opacity:0.39;}
	.st29{fill:#5E85BC;}
	.st30{fill:#4E75A5;}
	.st31{fill:#749DCE;}
	.st32{fill:#DB5B3E;}
	.st33{fill:#66423B;}
	.st34{fill:#7C4343;}
	.st35{fill:#EA7B59;}
	.st36{fill:#491D2E;}
	.st37{fill:#FFEBEB;}
	.st38{fill:#EF8F6F;}
	.st39{fill:#8B54B2;}
	.st40{fill:#634C84;}
	.st41{fill:#E2D5AF;}
	.st42{fill:#F7F0DA;}
	.st43{fill:#4C396B;}
	.st44{fill:#F24C5C;}
	.st45{fill:#D63444;}
	.st46{fill:#B72036;}
	.st47{fill:#6D3E4C;}
	.st48{fill:#592E3C;}
	.st49{fill:#FF9239;}
	.st50{fill:#FF6D2C;}
	.st51{fill:#7A4939;}
	.st52{fill:#603428;}
	.st53{fill:#DBCCAD;}
	.st54{fill:#D1BB93;}
	.st55{fill:#BA9E70;}
	.st56{fill:#F9F0E1;}
	.st57{fill:#F2E9CE;}
	.st58{fill:#503D70;}
	.st59{fill:#4F3131;}
	.st60{fill:#B7BF47;}
	.st61{fill:#999B32;}
	.st62{opacity:0.58;}
	.st63{fill:#FFF9F1;}
	.st64{fill:#A5A53A;}
	.st65{opacity:0.42;fill:#FFF9F1;}
	.st66{fill:#602540;}
	.st67{fill:#D8C5A0;}
	.st68{fill:#DBC8A2;}
	.st69{fill:#D3BB92;}
	.st70{fill:#F4E8CE;}
	.st71{fill:#CE5230;}
	.st72{fill:#CEB995;}
	.st73{fill:#EF7335;}
	.st74{fill:#4B6F9B;}
	.st75{fill:#F4E6C9;}
	.st76{fill:#633D37;}
	.st77{fill:#FFC69F;}
	.st78{fill:#472922;}
	.st79{fill:#FFF6E3;}
</style>
<g>
	<polygon class="st0" points="756.5,475.8 405.9,475.8 334.6,793.2 685.2,793.2 	"/>
	<g>
		<g>
			<polygon class="st1" points="429.9,142.7 377.6,142.7 363.6,374.5 422.8,374.5 			"/>
			<polygon class="st2" points="436.2,142.7 383.1,142.7 369.3,374.5 429.4,374.5 			"/>
			<polygon class="st1" points="444.2,148.4 391.1,148.4 369.1,373.8 425.3,374.1 			"/>
			<path class="st3" d="M431.8,145.7c-12.8,5-26.2,5.5-40.2,2.4L376,371.5c17.1-3.1,33.6-3.1,45.5,0.5L431.8,145.7z"/>
			<polygon class="st1" points="566.3,138.4 427.3,138.4 409.3,374.5 551.1,374.5 			"/>
			<polygon class="st4" points="572.6,138.4 433.6,138.4 415.6,374.5 557.4,374.5 			"/>
			<path class="st5" d="M406.1,150c-4.8-0.2-9.6-0.8-14.5-1.9L376,371.5c7-1.3,13.8-2,20.3-2.2L406.1,150z"/>
			<g class="st6">
				<path class="st7" d="M551.8,365.4H422.6L439,147.5h126.6L551.8,365.4z M425,363.2h124.6l13.5-213.4H441L425,363.2z"/>
			</g>
			<g class="st6">
				<path class="st7" d="M545.6,357.4H430.2l14.6-201.9h113.1L545.6,357.4z M432.4,355.3h111.4l12-197.8H446.7L432.4,355.3z"/>
			</g>
			<polygon class="st8" points="509.7,138.3 476.8,231.1 443.4,213.1 424.9,250.4 415.7,374.4 553.6,374.4 572.5,289 541.6,138.3 
							"/>
		</g>
		<path class="st9" d="M547.8,33c-18.5-6.6-13.4-24.9-6.3-27.9c7.1-3,24.9,0.3,21.1,17.5C558.7,39.8,547.8,33,547.8,33z"/>
		<path class="st10" d="M549.8,22.1c-8.1-2.9-11.6-7.9-12.5-13c-4,6.6-3.9,18.8,10.5,23.9c0,0,10.9,6.8,14.7-10.4
			c0.5-2.2,0.6-4.2,0.5-5.9C558.4,27.4,549.8,22.1,549.8,22.1z"/>
		<path class="st11" d="M552.9,34.6c-14.6-3.8-10.6-14.4-5-16.1c5.6-1.8,19.5,0.1,16.5,10.1C561.4,38.6,552.9,34.6,552.9,34.6z"/>
		<path class="st9" d="M556.5,109.8c-25.6-18.3-25.4-62.2-14-78.9c11.4-16.7,42.4-16.7,55.6-1.5c13.2,15.2,14.5,39.7,3.1,52.6
			C589.8,94.9,556.5,109.8,556.5,109.8z"/>
		<path class="st10" d="M602.9,68.2c-0.6-27.3-4.4-34.4-16-41.3c0,0,13.8,11.5,7.3,27.5L602.9,68.2z"/>
		<path class="st10" d="M594.6,67.6c-7.9-29.1-13.5-35.9-26.7-40.8c0,0,16.5,9.4,14.5,27.9L594.6,67.6z"/>
		<path class="st10" d="M570.2,58.8C556.2,47,550,32,558.9,21.4c0.7-0.8,1.5-1.6,2.3-2.3c-7.6,1.7-14.5,5.6-18.7,11.7
			c-11.4,16.7-11.7,60.6,14,78.9c0,0,33.3-14.9,44.7-27.8c3.9-4.4,6.2-10.1,7.2-16.4C599.1,74.7,583.6,70.2,570.2,58.8z"/>
		<path class="st12" d="M635.5,224.3c-1.9-42-44.8-89.3-49.2-89.7c-4.4-0.3-3.6,17.5,7.2,35.1s22.7,59.3,24.1,63.7
			C618.9,237.8,635.9,231.7,635.5,224.3z"/>
		<path class="st13" d="M586.8,130.5c-2-0.2-3.1,4.4-2.5,11.2c8.4,6.5,43.2,51,47,89.2c2.5-1.8,4.4-4.2,4.3-6.7
			C633.6,182.3,591.2,130.9,586.8,130.5z"/>
		<path class="st13" d="M488.5,226.8c1.9-42,44.8-94.5,49.2-94.9c4.4-0.3,2.9,29.9-7.9,47.5c-10.8,17.6-22,52.1-23.3,56.5
			S488.2,234.2,488.5,226.8z"/>
		<path class="st12" d="M526.5,171.1c-13.3,19.3-17.9,48.5-37.6,47.7c-1.2-0.1,8.6,16.5,6.4,16.2c4.8,2.5,10.4,3.4,11.2,0.9
			c1.4-4.4,16.5-40.9,27.3-58.5c6.1-9.9,0-25.7,0.8-35.9C531.7,151.1,532.3,162.7,526.5,171.1z"/>
		<path class="st14" d="M515,224.4c-8.2-6.7-24.4-9-28.6-6.3c-4.2,2.7-2.5,22.2,9.5,25.6C508,247.2,515,224.4,515,224.4z"/>
		<path class="st13" d="M582.8,169.7l-45.4-22.3c21.1,97.9-1.5,85.8,3.7,123.8c25.8,10.6,50.5,6.5,74.4-11.1
			C591.7,255.1,582.8,169.7,582.8,169.7z"/>
		<path class="st12" d="M557.5,270.9c-5.8-24.1,2.9-46.8,19.3-50.8c5.3-1.3,10.7-0.4,15.8,2.1c-6.9-24.8-9.8-52.5-9.8-52.5
			l-45.4-22.3c21.1,97.9-1.5,85.8,3.7,123.8c6,2.5,12,4.1,17.9,5C558.5,274.5,558,272.7,557.5,270.9z"/>
		<path class="st15" d="M575,269.9l-131.3-55.5c30.4,47.2,73.9,92,88.6,96c14.7,4.1,66,6.2,76.1,2.1c10.2-4,88.9-88.2,88.9-88.2
			S594.8,269.5,575,269.9z"/>
		<polygon class="st16" points="643.9,246.9 596.4,275.8 612.4,258.9 		"/>
		<path class="st13" d="M536,133c-8.5,15.2,0.1,70.6,3.9,74.3c3.9,3.7,60.9-2.7,63.7-5.2c2.8-2.5-11.2-67.6-15.8-71
			c-4.6-3.4-19.2-9.3-22.5-9.6C562,121.3,536.9,131.4,536,133z"/>
		<path class="st12" d="M543.7,202.5c-2.9-3-10-35.9-10.4-60.3c-3.3,21.4,3.1,63.4,6.4,66.6c3.9,3.7,61.1-4.1,64-6.6
			c0.4-0.3,0.4-1.7,0.3-3.9C592,201.4,547.3,206.1,543.7,202.5z"/>
		<path class="st17" d="M586.9,212.8c-0.1,4.7-2.7,6-3.3,9.2c-0.6,3.2-2.2-1.4-1.5-3.9C582.8,215.4,586.9,212.8,586.9,212.8z"/>
		<path class="st18" d="M578.3,216.5c4.5,3.1,6.4,2,7.4,0.9c0.9-1.1,2-3.9,2-3.9l-5.1-1.4l0.1,3.2
			C582.8,215.3,575.5,214.5,578.3,216.5z"/>
		<path class="st18" d="M575,217.9c4.5,3.1,6.4,2,7.4,0.9c0.9-1.1,2-3.9,2-3.9l-5.1-1.4l0.1,3.2C579.5,216.7,572.2,215.9,575,217.9z
			"/>
		<path class="st18" d="M497.5,225c19.3-7.5,77.7-14.3,77.7-14.3l0.5,1.5c0,0-56.8,32.9-74.8,29.4
			C482.7,238.2,489.7,228.1,497.5,225z"/>
		<path class="st17" d="M507.5,231.8c-6.8-1.6-10.1-3.8-11.3-6.2c-7.2,3.6-12.4,12.8,4.6,16c18,3.5,74.8-29.4,74.8-29.4l-0.1-0.4
			C557.6,219.9,521.3,235,507.5,231.8z"/>
		<path class="st18" d="M586.6,211.5c-3.5-3.1-11.3-2.5-17.6,0.2l-1.8,3.7c5.3-1.1,13,1.1,15.4,1.7
			C585,217.8,590.1,214.6,586.6,211.5z"/>
		<path class="st18" d="M586.1,211.2c4.1,3.4,10.1,11.2,10,12.6c-0.1,1.4-4.8-3.1-6-4.7c-1.2-1.6-5.9-5-5.9-5L586.1,211.2z"/>
		<polygon class="st19" points="620.1,145.9 575.5,244.4 530.5,246.7 527.8,249.1 668.2,247.1 716.2,145.9 		"/>
		<path class="st20" d="M620.1,145.9c40,17.2,56.4,50.6,48,101.1l48-101.1H620.1z"/>
		<polygon class="st21" points="578.8,248.4 625,145.9 620.1,145.9 575.5,244.4 530.5,246.7 527.8,249.1 		"/>
		<path class="st16" d="M702.8,195.3c-17.8,4.1-57.8,48.7-105,115.7l1,2.5c0,0,81.9-63.1,91.6-74.8
			C700,227.1,720.6,191.3,702.8,195.3z"/>
		<path class="st22" d="M692,231.3c-7.4,8-53.3,40.4-78.6,58.1c-5.1,6.9-10.3,14.1-15.6,21.7l1,2.5c0,0,82.4-61.9,92-73.6
			c5.2-6.3,13-20.8,16.9-31C703,217.5,696.4,226.6,692,231.3z"/>
		<path class="st22" d="M605.1,300.8l42.8-32.2c0,0,21.2-39.7,43.2-67.2C671.6,215.4,640.7,251.3,605.1,300.8z"/>
		<path class="st16" d="M445.6,210.6c-10.7,7.6,12.2,23.3,33.5,45.2c21.3,21.8,60.4,28.4,121.8,57.8l2.5-1.5
			C530.3,243,456.2,202.9,445.6,210.6z"/>
		<path class="st22" d="M577.9,289.1c-51.3-21.6-84.8-28.3-104.3-47.5c-11.4-11.3-23.2-20.8-30.3-28.5c-3.8,8.3,16,24.8,35.2,44.4
			c21.3,21.8,60.9,26.6,122.3,56.1l2.5-1.5C594.9,304,586.4,296.4,577.9,289.1z"/>
		<path class="st23" d="M600.7,316.5l7.4-11.9c0,0-10.8-10.6-23.8-17.9L600.7,316.5z"/>
		<path class="st19" d="M601.6,314.6l-9.3-3.3c0,0,7.4-13.1,27.5-22.6L601.6,314.6z"/>
		<path class="st14" d="M583.6,128.2c-6.3-3.4-15.7-8.4-18.3-8.6c-2.7-0.3-19.1,7.6-26,11.3c13.2,46,36.2,65.1,36.2,65.1
			S585.7,129.3,583.6,128.2z"/>
		<path class="st12" d="M583.6,128.2c-0.5-0.3-1-0.6-1.6-0.8c-1.1,15.8-8.3,62.6-8.3,62.6s-21-17.5-34.4-59.2c0,0-0.1,0-0.1,0.1
			c13.2,46,36.7,67.6,36.7,67.6S585.7,129.3,583.6,128.2z"/>
		<path class="st18" d="M549.9,126.3c-0.3-30.2,4.3-47.7,4.3-47.7l18,16.2l-1,27.1c0,0-4.3,9.1-9.9,9.9
			C555.7,132.7,549.9,126.3,549.9,126.3z"/>
		<g>
			<path class="st24" d="M729.1,313.9l-112.2,0c-19.9,0-25.6,57.8-5.7,57.8l112.2,0C713.2,363.9,714.6,323.1,729.1,313.9z"/>
			<path class="st25" d="M623.8,311l-156.4,0c-31.1-0.9-34.5,62.6-3.4,63.5l156.4,0C593.7,373.7,597.1,310.2,623.8,311z"/>
			<path class="st26" d="M619,374.4c-11.4-1.3-16.8-14.6-17-28.7H442.3c0.3,14.6,7.3,28.4,21.6,28.8l155.1,0V374.4z"/>
			<path class="st11" d="M730.3,311l-124.6,0l-1.1,6l124.6,0c1.7,0,3.3-1.3,3.6-3v0C733,312.4,731.9,311,730.3,311z"/>
			<path class="st11" d="M727.6,369.3l-124.1,0l-1.2,5.2l124.1,0c1.7,0,3.3-1.2,3.6-2.6l0,0C730.3,370.5,729.3,369.3,727.6,369.3z"
				/>
			<path class="st27" d="M720.7,325.5l-96.9,0c-19.9,0-22.1,38.8-2.3,38.8l97.3,0C715.6,354.1,716.2,337.3,720.7,325.5z"/>
			<path class="st11" d="M623.8,311h-18.6c-14.6,12-16.3,51.5-2.4,63.5h17.6C593.7,373.7,597.1,310.2,623.8,311z"/>
			<g class="st28">
				<path class="st7" d="M592.6,372.3l-119.1,0c-8.3-0.2-15-4.4-19-11.7c-5.5-10.2-4.9-25.1,1.4-35.5c4.8-7.9,12.3-12.1,21.1-11.8
					h117.8l-2.6,2c-7.2,5.5-11.7,16.6-11.8,29c-0.1,11.3,3.6,21,9.8,26L592.6,372.3z M476.3,315.5c-7.7,0-14.2,3.8-18.5,10.8
					c-6,9.7-6.5,23.7-1.4,33.2c2.5,4.7,7.5,10.3,17.1,10.5l113,0c-5.4-5.8-8.6-15.2-8.5-25.8c0.1-11.7,4-22.4,10.4-28.7H476.9
					C476.7,315.5,476.5,315.5,476.3,315.5z"/>
			</g>
		</g>
		<g>
			<path class="st24" d="M789.5,370l-173.7,0c-30.7,0-32.4,111.1-1.6,111.1l173.7,0C771.2,466.1,768.3,387.6,789.5,370z"/>
			<path class="st29" d="M626.2,364.5l-242.1,0c-48.2-1.8-45.6,120.3,2.6,122.1l242.2,0C587.4,485.1,584.8,363,626.2,364.5z"/>
			<path class="st30" d="M626.6,486.3c-17.8-2.6-27.9-28-29.8-55.1H349.5c2.3,28.1,14.8,54.5,37.1,55.4l240,0L626.6,486.3z"/>
			<path class="st31" d="M791,364.5l-192.8,0l-1,11.6l192.8,0c2.6,0,4.9-2.6,5.2-5.8l0,0C795.5,367.1,793.6,364.5,791,364.5z"/>
			<path class="st31" d="M794.1,476.5l-192.1,0l-1.2,10l192.1,0c2.6,0,4.9-2.2,5.3-5l0,0C798.5,478.8,796.7,476.5,794.1,476.5z"/>
			<path class="st27" d="M778.1,392.3l-149.9,0c-30.7,0-29.4,74.6,1.3,74.6l150.6,0C773.7,447.4,772.4,415,778.1,392.3z"/>
			<path class="st31" d="M626.2,364.5h-28.8c-21.1,23-18.8,99,4.2,122.1h27.2C587.4,485.1,584.8,363,626.2,364.5z"/>
			<g class="st28">
				<path class="st7" d="M585.6,482.3l-184.4,0c-12.9-0.4-23.8-8.4-30.9-22.5c-9.8-19.6-10.8-48.3-2.2-68.2
					c6.5-15.1,17.5-23.2,31.1-22.8h182.3l-3.8,3.9c-10.4,10.6-16,32-14.7,55.7c1.2,21.7,8.1,40.4,18.4,50.1L585.6,482.3z
					 M398.4,373.1c-11.9,0-21.5,7.3-27.3,20.7c-8,18.7-7.1,45.5,2.1,63.9c4.5,9,13,19.8,27.7,20.3l175,0
					c-9.2-11.1-15.2-29.2-16.3-49.6c-1.3-22.5,3.5-43,12.5-55.2H399.4C399.1,373.1,398.8,373.1,398.4,373.1z"/>
			</g>
		</g>
		<path class="st8" d="M569.2,166.5c11.9-7,18-21.2,17.1-36.4c-0.7-0.4-1.5-0.9-2.5-1.4c0-0.1,0-0.2,0-0.3c0-0.2-0.1-0.3-0.2-0.3
			c-3.8-2-8.6-4.6-12.4-6.4l0.9-24.6c-5.6-5.9-12.3-10-19.3-11.9c-1.3,7.6-3.1,21.4-3,40.3c-4,1.9-7.9,3.8-10.5,5.2
			c0,0-0.1,0-0.1,0.1c0,0.1,0,0.1,0.1,0.2c-0.7,0.3-1.3,0.6-1.8,0.9c-2,0.7-9,8.2-17.1,19.4C532.6,169.1,553.3,175.9,569.2,166.5z"
			/>
		<path class="st18" d="M551.3,70.1c-9.7,41.8,24.1,58.2,24.1,58.2s26.7-25.7,29.8-57.8c1.7-17.4-0.8-22.6-18.1-25.4
			C569.9,42.4,553.8,59.2,551.3,70.1z"/>
		<path class="st10" d="M553.3,93.5c8.9-25.9,10.9-47.7,0.3-46.5C543,48.1,538.4,85.3,553.3,93.5z"/>
		<path class="st18" d="M554.9,97c2.2-22.1,0.3-24.9-6.7-24.9C540.2,72.1,539.5,93.4,554.9,97z"/>
		<path class="st32" d="M552.6,91.9c1.3-13.3,0.2-14.9-4-14.9C543.8,77,543.4,89.8,552.6,91.9z"/>
		<path class="st18" d="M552.9,93.6c0-8.5-0.9-9.5-3.9-9.3C545.6,84.6,546.2,92.8,552.9,93.6z"/>
		<g>
			<path class="st33" d="M595.8,85.4c0.6-3.5-0.7-6.5-2.8-6.8c-2.2-0.3-4.4,2.3-5,5.8c-0.6,3.5,0.7,6.5,2.8,6.8
				C593,91.4,595.2,88.9,595.8,85.4z"/>
			<path class="st33" d="M574.7,82.5c0.8-4-0.4-7.6-2.7-8c-2.3-0.4-4.8,2.4-5.6,6.4c-0.8,4,0.4,7.6,2.7,8
				C571.3,89.4,573.9,86.5,574.7,82.5z"/>
			<path class="st33" d="M562.8,79.2c0,0,8.2-4.3,14.5-2.2c0,0-1-3.4-5.9-3.3C566.5,73.8,562.8,79.2,562.8,79.2z"/>
			<path class="st33" d="M599.1,82.8c0,0-5.8-5-11.9-4.3c0,0,1.9-2.8,6.1-1.9C597.6,77.5,599.1,82.8,599.1,82.8z"/>
			<g>
				<path class="st34" d="M562.6,71.6l-0.1-0.9c3.4-4.9,10-7.5,13.6-7.6l-0.2,3.1C573,65.6,566.1,67.6,562.6,71.6z"/>
			</g>
			<g>
				<path class="st34" d="M601.3,75.3c-2.8-5.6-9.8-7.7-11.5-7.7l0.7-3c2,0.1,8.3,2.7,11.5,9.7L601.3,75.3z"/>
			</g>
			<path class="st35" d="M584.4,95.5c0,0.1,0,0.2-0.1,0.3c-1.1,2.1-3.7,2.9-5.9,1.8c-1.3-0.7-2-1.9-2.3-3.2c-0.8,2.1,0,4.5,2,5.6
				c2.2,1.1,4.8,0.3,5.9-1.8C584.5,97.3,584.6,96.4,584.4,95.5z"/>
			<path class="st36" d="M568.8,105.5l14.8,2.4c0,0-3.2,7.1-9.2,6C568.7,112.7,568.8,105.5,568.8,105.5z"/>
			<path class="st37" d="M569.8,105.9l12.5,2c0,0,0.2,3.4-6.9,2.4C567.9,109.2,569.8,105.9,569.8,105.9z"/>
			<path class="st38" d="M577.2,116.7c0.2-0.9-1.3-0.2-2.9-0.5c-1.6-0.3-2.6-1.4-2.9-0.5c-0.2,0.9,0.9,1.9,2.4,2.1
				C575.5,118.1,576.9,117.6,577.2,116.7z"/>
		</g>
	</g>
	<g>
		<polygon class="st39" points="718,424.6 541.9,424.6 530.5,594.5 646.2,753.3 		"/>
		<polygon class="st40" points="722.5,430.8 546.3,430.8 535,600.7 650.7,759.6 		"/>
		<polygon class="st41" points="720.9,439 544.8,439 480.8,736 649.2,767.7 		"/>
		<path class="st42" d="M560.7,453c31.3-0.8,57.7-3.1,57.7-10.2c0-0.3-0.1-0.6-0.1-0.9h-67.6L560.7,453z"/>
		<path class="st0" d="M546.4,437.4c21.5,3.4,32.1,14.4,29.1,28.3C571.6,483.4,546.4,437.4,546.4,437.4z"/>
		<polygon class="st40" points="741.7,463.3 565.6,463.3 493.8,792 670,792 		"/>
		<polygon class="st43" points="776,463.3 599.9,463.3 528.1,792 704.2,792 		"/>
		<path class="st19" d="M574.7,486.1l-63,288.5h154.5l63-288.5H574.7z M663.7,769.8H517.8l59.5-279h145.9L663.7,769.8z"/>
		<polygon class="st8" points="575.7,424.7 580.5,430.4 579.3,438.6 599.9,463.3 626.8,463.3 633.2,424.7 		"/>
		<path class="st44" d="M863.5,382.5l-183.9,0c-5.7,0-10.4,4.4-10.8,10.1l-23.4,389.1c-0.4,6.2,4.6,11.4,10.8,11.4l197.6,0
			c5.9,0,10.6-4.7,10.8-10.5l9.7-389.1C874.5,387.5,869.6,382.5,863.5,382.5z"/>
		<path class="st45" d="M757.9,382.5l-72.1,0c-2.2,0-3.5,4.4-2.9,10.1l42.3,389.1c0.7,6.2,3.3,11.4,5.7,11.4l77.5,0
			c2.3,0,3.6-4.7,2.8-10.5l-47.7-389.1C762.9,387.5,760.3,382.5,757.9,382.5z"/>
		<g>
			<path class="st19" d="M848.3,779.6H689.9v-1.3l0.3-378.6h167c3.1,0,5.9,1.2,8,3.4c2.1,2.2,3.3,5.1,3.2,8.1l-8.9,357.4
				C859.4,774.8,854.5,779.6,848.3,779.6z M692.6,777h155.8c4.7,0,8.5-3.7,8.6-8.4l8.9-357.4c0.1-2.3-0.8-4.5-2.4-6.2
				c-1.6-1.7-3.8-2.6-6.2-2.6H692.9L692.6,777z"/>
		</g>
		<polygon class="st45" points="683.2,382.5 624.5,382.5 617.5,793.2 682.8,793.2 		"/>
		<polygon class="st46" points="624.5,382.5 624.4,389.3 675.1,389.8 678.7,793.2 682.8,793.2 683.2,382.5 		"/>
		<path class="st47" d="M796.6,530.8c0,0,44,128.4,44.1,132.9c0.1,4.5-61.1,111.1-61.1,111.1l-1.4-0.4l30.9-107.7L783,602.6
			L796.6,530.8z"/>
		<path class="st48" d="M790.7,562l-17.1,32l33.6,71.5l-29,108.8l0.3,0.1c11.5-26.3,42.2-105.2,42.1-108.9
			C820.5,662.4,803.7,600.2,790.7,562z"/>
		<path class="st47" d="M738.8,547c18.7,89.4,74.1,241.6,74.1,241.6h1.6l-22.1-194.2l11-10.4l-6.2-52.6
			C797.2,531.4,734.9,528.1,738.8,547z"/>
		<path class="st48" d="M747,569.7c25.8-24,34.9-23.3,42.3-20.4c7.4,2.9,13.9,0.7,13.9,0.7l-3.6-14.6l-51.7-2.7L747,569.7z"/>
		<g>
			<path class="st48" d="M748.6,535.7c-6.7,2.4-10.9,5.9-9.8,11.3c18.7,89.4,74.1,241.6,74.1,241.6h1.5
				C805.6,757.3,765.7,615.7,748.6,535.7z"/>
		</g>
		<polygon class="st48" points="793.2,597.2 777.9,591.3 793.4,591 806.8,579.9 		"/>
		<path class="st11" d="M777.5,403.7c29,23.7,39.8,68.8,39.8,68.8l55.8-2.5l2.8,13.3c0,0-46.6,27.1-71.2,19.7
			C779.9,495.6,777.5,403.7,777.5,403.7z"/>
		<path class="st17" d="M875,483.5c11.9,3.2,20,0.3,23.3-3.7c3.4-4,8.9-14.4,3.4-14.9c-5.5-0.5-29.2,9.1-29.2,9.1L875,483.5z"/>
		<path class="st49" d="M821.8,482.6c-16.3-4.9-9.9-45.2-44.3-78.9c0,0,2.5,91.9,27.1,99.3c24.7,7.4,71.2-19.7,71.2-19.7l-1.6-7.5
			C858.5,479.2,838.9,487.7,821.8,482.6z"/>
		<path class="st19" d="M879,485.3c0,0.6-7.9-16.9-7.9-16.9l-15.5,1.1l1.8,11.5l4.7,0.2l-5.6,3.3l6,9.6L879,485.3z"/>
		<path class="st11" d="M741.7,393.8c-24.3,30.8-16.6,72.4-10.8,92.3c5.7,19.8-3.5,59.8,11.7,77.5c0,0,22-24.1,37.4-22.1
			c15.4,2,19.1,9.8,23.2,6.4c4-3.4-1.1-51.5,1.5-64.7c2.6-13.2-1.3-48.9-18.4-69.6C769.1,392.9,741.7,393.8,741.7,393.8z"/>
		<path class="st50" d="M738.5,409.4c-2.7,0-5.3,1.4-7.7,3.9c-10.3,27.1-4.5,57,0.1,72.9c5.7,19.8-3.5,59.8,11.7,77.5
			c0,0,10.6-11.6,22.3-18.1c1.2-11.2,1.9-23.2,1.9-35.9C766.7,454.3,754.1,409.4,738.5,409.4z"/>
		<path class="st51" d="M758.6,370.1c-16.3-25.5-9.3-35.9-9.3-35.9s-8.8-13.4,0.1-26c0,0,0.7-18.9,23.3-23.1c0,0,14.9-16.1,26.7-6.8
			c0,0,13.8-11,20.4,10.5c6.6,21.4-1.7,21.3-1.7,21.3s12.9,27.8-8,34.6C789.3,351.5,758.6,370.1,758.6,370.1z"/>
		<path class="st52" d="M808.7,344.9c0,0-16-0.8-20.9-15.5c0,0-14.8-11.7-4.8-32.5c0,0-2.5-13,3.2-20.7c-7.5,2.3-13.6,8.9-13.6,8.9
			c-22.6,4.2-23.3,23.1-23.3,23.1c-9,12.6-0.1,26-0.1,26s-6.9,10.4,9.3,35.9c0,0,29.4-17.9,50.3-25
			C808.8,345,808.7,344.9,808.7,344.9z"/>
		<path class="st19" d="M773.9,400.3l-32.2-6.5c25.3,12,49.5,34.2,49.5,34.2S782.8,405.8,773.9,400.3z"/>
		<polygon class="st18" points="741.7,393.8 765.1,336.2 785.5,363.6 776.9,404.6 		"/>
		<polygon class="st53" points="916,374.1 865.1,469.1 782.2,476.5 782.5,478 895.7,478 953.3,383.3 		"/>
		<polygon class="st54" points="865.1,469.1 782.2,476.5 782.5,478 895.7,478 869.7,474.3 		"/>
		<polygon class="st55" points="782.5,478 895.7,478 869.7,474.3 		"/>
		<polygon class="st5" points="926.8,376.7 869.6,474.3 895.7,478 953.3,383.3 		"/>
		<polygon class="st56" points="926.8,376.7 895.7,478 953.3,383.3 		"/>
		<path class="st50" d="M731.9,490.7c3.5,20.7-3.3,55.8,10.3,72.4c10.3-42.7,26.6-57.4,61.9-54.4c-0.3-9.6-0.4-18.7,0.3-24
			C785,482.1,752.3,479.9,731.9,490.7z"/>
		<path class="st11" d="M762.1,473.1c-2.6-38.5-14.5-81-20.9-78.8c-7.6,2.6-20.4,18.7-22.6,41.8c-2.1,21.2,12.4,68.3,23.1,76.9
			c10.6,8.6,71.4-34.4,87.5-41.5l2.9-17.6C809.7,453.4,781,462.7,762.1,473.1z"/>
		<path class="st49" d="M766.6,470.7c18.9-7.9,43.9-13.9,63.6-12.4l-3.1,14.2c0.7-0.4,1.4-0.7,2-1l2.9-17.6
			C811.4,453.4,785.3,461.3,766.6,470.7z"/>
		<path class="st49" d="M747.9,498.6c-10.6-8.6-23-60.9-21-82c0.4-3.8,1-7.3,1.9-10.7c-4.8,7.4-9.1,17.8-10.3,30.2
			c-2.1,21.2,10.3,73.4,21,82c10.6,8.6,73.5-39.5,89.6-46.6l1.8-10.8C809,472.7,757.5,506.4,747.9,498.6z"/>
		<path class="st57" d="M835.3,793.2h-22.6c0,0-3.1-5.6,1.5-7.9C820.2,782.3,835.3,793.2,835.3,793.2z"/>
		<path class="st57" d="M792.8,793.2H780l-5.6-17.5c0,0,5.3-9.6,8.1-4.5c1.7,3.1,0.7,12.6,0.7,16.5
			C787.5,790.8,792.8,793.2,792.8,793.2z"/>
		<path class="st40" d="M550.2,431.1c-3.4,10.2,21.3,29.6,27.5,32.2l-18.5,4.4l-18.6-27.4l1.4-15.8L550.2,431.1z"/>
		<path class="st58" d="M569.7,468.3c-19.2-11-25.8-29.6-27.7-43.8l-71.6,328.7c3,16.5,10.2,30.2,24.3,39.2L569.7,468.3z"/>
		<polygon class="st19" points="661,546.6 633.6,546.6 630.3,765.5 660.9,765.5 		"/>
		<polygon class="st19" points="634.6,411.2 662.1,411.2 664.2,401.1 633.6,401.1 		"/>
		<polygon class="st19" points="634.6,433.4 662.1,433.4 664.2,423.3 633.6,423.3 		"/>
		<path class="st17" d="M853.9,456.7c0.5,5.3-0.8,8.7-2,9.3c-1.2,0.6-5.2-1.3-5.9-3C845.4,461.3,853.4,452.1,853.9,456.7z"/>
		<path class="st18" d="M852.6,453.7c-0.4,10-1.3,10.9-2.8,11.8c-1.5,0.9-6.2-0.3-6.7-1.8c-0.5-1.6,0.4-5.5,1.6-5.2
			c1.2,0.3,2.7,0.4,2.7,0.4L852.6,453.7z"/>
		<path class="st18" d="M848.6,450.8c-2.1-4-18.1-3.7-26.7,4.3l5.3,14.3c7.4-3.2,13.8-8.8,18.5-8.3
			C850.2,461.5,850.6,454.8,848.6,450.8z"/>
		<path class="st18" d="M846.7,455.8c-0.4,10-1.3,10.9-2.8,11.8c-1.5,0.9-6.2-0.3-6.7-1.8c-0.5-1.6,0.4-5.5,1.6-5.2
			c1.2,0.3,2.7,0.4,2.7,0.4L846.7,455.8z"/>
		<path class="st18" d="M845.3,448.8c5.4,1.2,9.2,3.8,11,6.3c1.8,2.5,4,8.8,4.1,10.3c0.1,1.5-3,3.3-3.7,1.4
			c-0.7-1.9-2.7-7.6-3.3-7.9s-6.1-3.1-6.3-3.1C846.9,455.8,845.3,448.8,845.3,448.8z"/>
		<path class="st19" d="M832.2,470.9c0,0.7-7.9-19.8-7.9-19.8l-15.5,1.3l1.8,13.4l4.7,0.2l-5.6,3.8l6,11.2L832.2,470.9z"/>
		<polygon class="st19" points="739.4,394.6 743.9,387.2 779.1,400.3 777,407 		"/>
		<path class="st8" d="M778.7,404.8c-0.2-0.3-0.5-0.5-0.7-0.8l1.2-3.7l-1.3-0.5l3.9-18.5c-5.9-11-14-21.9-23.1-29.1l-14.3,35.2
			l-0.5-0.2l-4.5,7.4l0.6,0.2c-3.2,1.6-7,5.2-10.6,10.5c20.3-0.8,48.4,19.3,58.7,13.1c0.8-0.5,1.4-1.1,1.8-2
			C786.5,412.2,782.8,408.3,778.7,404.8z"/>
		<path class="st18" d="M769,319.3c-12.3,30.2-12.2,58.5-12.1,60.7c0.1,2.2,19.8,16.8,26.6,18.1c0,0,24.1-30.4,29.1-55.9
			c5-25.4-1.5-31.7-9.1-33.3C795.9,307.4,773.8,307.6,769,319.3z"/>
		<path class="st52" d="M765.5,358.4c16.7-40,21.4-59.3,7.2-52c-14.3,7.3-13.3,46.2-13.3,46.2L765.5,358.4z"/>
		<path class="st18" d="M765.3,345.1c0.4-9.5-10.2-18-12.1-7.8c-1.9,10.2,4.5,25.3,7,22.3C762.7,356.5,765.2,348.2,765.3,345.1z"/>
		<path class="st32" d="M763,345.5c0.3-6-6.4-11.3-7.6-4.9c-1.2,6.4,2.8,15.9,4.4,14C761.4,352.7,762.9,347.5,763,345.5z"/>
		<path class="st18" d="M761.9,349.6c0.2-3.9-4.2-7.4-5-3.2c-0.8,4.2,1.8,10.5,2.9,9.2C760.9,354.3,761.9,350.9,761.9,349.6z"/>
		<g>
			<path class="st59" d="M805.5,349.3c1.1-2.6,0.8-5.1-0.6-5.7c-1.5-0.5-3.6,1.1-4.7,3.7c-1.1,2.6-0.8,5.1,0.6,5.6
				C802.3,353.6,804.4,351.9,805.5,349.3z"/>
			<path class="st18" d="M794.7,341.1c2.2-0.8,3.2,26.9,1.8,29.9c-0.7,1.5-10-3.7-10-3.7S794.3,341.2,794.7,341.1z"/>
			<path class="st35" d="M795.3,342.1c1,5.9,2,25.7,0.8,28.3c-0.5,1.1-6.4-1.8-8.8-3.1c-0.2,0.6-0.3,0.9-0.3,0.9s9.8,6,10.5,4.5
				C798.8,369.7,797.1,343.6,795.3,342.1z"/>
			<path class="st59" d="M789.9,342.7c1.3-2.5,1.2-5.1-0.2-5.7c-1.4-0.7-3.6,0.8-5,3.3c-1.3,2.5-1.3,5.1,0.2,5.7
				C786.3,346.7,788.5,345.2,789.9,342.7z"/>
			<path class="st51" d="M803,324.5c-0.8-2.2-13.9-3-17.1-2.7c-3.2,0.3-3.9,2.7-4,5.2c-0.1,2.5,13.7,7.9,18.6,5
				C802.7,330.7,803.8,326.7,803,324.5z"/>
			<path class="st51" d="M805.5,336.3c-0.5,4.4,6.9,6.5,8.6,4.7c1.7-1.8,3.2-3.8,2.4-5.7c-0.8-1.8-5.5-7.7-7.3-6.5
				C807.4,330.1,805.8,334.3,805.5,336.3z"/>
			<path class="st35" d="M780.7,379.2c0.2-0.5-0.9-1.6-2.5-2.5c-1.6-0.9-3.1-1.3-3.3-0.8c-0.2,0.5,0.9,1.6,2.5,2.5
				C779,379.3,780.5,379.7,780.7,379.2z"/>
			<path class="st35" d="M772.5,366.4c0.3-0.5,0.5-0.8,0.5-0.8c4.1,5.9,7.1,9.4,16.5,14.1c0,0-0.4,0.3-1,0.7
				C782.9,378.3,773.5,370.6,772.5,366.4z"/>
		</g>
		<path class="st17" d="M901.2,474.4c4.6-4.8,8.4-14.7,7.3-18.1c-1.1-3.5-4.1-2.1-5-0.7c-0.9,1.5-1.9,12.3-2.5,14.9
			C900.4,473.1,901.2,474.4,901.2,474.4z"/>
		<path class="st17" d="M897.8,479.1c3.8-3.6,6-11,4.3-13.5c-1.7-2.6-4.5-1.6-5.1-0.5c-0.7,1.1,0.1,9.2,0,11.1
			C896.8,478.1,897.8,479.1,897.8,479.1z"/>
	</g>
	<g>
		<polygon class="st60" points="245.1,489.9 413.3,489.9 437.1,793.2 247,793.2 		"/>
		<polygon class="st61" points="262,658.4 325.2,490 351.5,490 341.3,520.3 350.6,518.5 359,667.7 388.1,667.7 403.6,726.3 
			416,726.3 427.1,763.4 431.8,792.9 245,792.9 		"/>
		<g class="st62">
			<path class="st63" d="M251.3,500.5l150.2-1.4l16.6,282.7L253,782.7L251.3,500.5z M399.3,501.5l-145.7,1.3l1.8,277.4l160.3-0.9
				L399.3,501.5z"/>
		</g>
		<polygon class="st64" points="412.4,489.9 454.9,489.9 473.4,793.2 428.8,793.2 		"/>
		<polygon class="st65" points="429.8,536.4 450.6,536.4 463.4,750.4 441.6,750.4 		"/>
		<polygon class="st61" points="415.9,489.9 432.2,793.2 425.9,793.2 409.5,489.9 		"/>
		<path class="st22" d="M242.2,628.1c-52.1,16.5-181,38.2-181,38.2l0.7,2.2h200.4L242.2,628.1z"/>
		<polygon class="st66" points="254.3,648.5 262.3,668.5 61.9,668.5 61.9,668.4 		"/>
		<path class="st19" d="M250.8,598.8c41-24.1,44.4-29.8,51.7-44.8c7.2-15,13.3-46-2.2-47c-15.5-1-43.6,51.2-55.7,50.1
			C232.4,556.2,228.2,612.1,250.8,598.8z"/>
		<path class="st67" d="M241.1,557.7c2.5,4.9,12.2,9.9,17.7,4.4c23-22.8,25.9-43.7,37.7-49.9c1.3-0.7,11.1,0.9,11.7-0.6
			c4.7,9.8-0.1,30.2-5.6,41.5c-7.2,15-10.7,20.7-51.7,44.8C230.5,609.8,231.8,566.1,241.1,557.7z"/>
		<path class="st19" d="M285.9,522.2c9-16.3,20.9-22.7,20.9-22.7s32.3-10.1,43,17.1c10.6,27.2-25.7,111.2-31.9,127
			c-6.2,15.8-13.2,20.9-48.5,18.4l-29.7-32.3C273,602.8,280,532.9,285.9,522.2z"/>
		<g>
			<path class="st67" d="M269,582.1c-2.4,18.2,18.2,36.8,25.8,36.2c12.3-0.9,28.5-46.6,41.8-85c3.6-10.5,5.3-19.9,5.6-28
				c3,2.7,5.5,6.4,7.4,11.2c10.6,27.2-25.7,111.2-31.9,127c-6.2,15.8-13.2,20.9-48.5,18.4l-29.7-32.3
				C253.2,618.6,262.5,600.5,269,582.1z"/>
		</g>
		<polygon class="st68" points="272.6,548.1 216.5,542.6 160.3,551.4 219,554.7 273,550.2 		"/>
		<polygon class="st69" points="208,543.9 216.5,542.6 272.6,548.1 273,550.2 264.5,550.9 		"/>
		<polygon class="st19" points="202.1,454.1 216.5,542.6 160.3,551.4 141.9,472.4 		"/>
		<polygon class="st70" points="202.1,454.1 160.3,551.4 141.9,472.4 		"/>
		<polygon class="st68" points="197.4,455.5 202.1,454.1 216.5,542.6 210.8,543.4 		"/>
		<path class="st19" d="M307.5,600.9c35.2-31.9,37.5-35.3,41.5-51.4c4-16.2,3.7-47.7-11.7-45.5c-15.4,2.2-31.9,56.5-44.1,58
			C281.1,563.5,288,618.6,307.5,600.9z"/>
		<path class="st67" d="M293.2,562c7.7-0.9,17.1-23.1,27-39.8c5.7-9.6-13.4,39-25.5,40.4c-9.5,1.2-7.3,35.3,3.5,41.5
			C286.1,600.3,283.3,563.2,293.2,562z"/>
		<path class="st67" d="M307.3,576.2c35.2-31.9,37.4-38.2,41.5-54.3c0.4-1.6,0.7-3.3,1-5.1c2.3,10.1,1.4,23.8-0.8,32.7
			c-4,16.2-6.3,22.4-41.5,54.3c-16.7,15.1-24.2-25.3-18.4-38.1C292.2,576.6,298.5,584.2,307.3,576.2z"/>
		<path class="st17" d="M243.6,559.4c-21.5-8.3-65.9-6.9-65.9-6.9l5.6,7.7c0,0,51.5,43.2,63.9,38.5
			C260,593.9,252.3,562.8,243.6,559.4z"/>
		<path class="st18" d="M307.9,559.8c-11.7-19.9-37.8-37.8-37.8-37.8l-11.8,8.1c0,0,27.2,72.6,39.4,75.2
			C309.9,608,312.5,567.7,307.9,559.8z"/>
		<path class="st17" d="M297.9,580.7c5.8,1.3,9.5-7.3,11.2-17.5c2.8,12.4-0.5,44.4-11.4,42c-12.2-2.7-39.4-75.2-39.4-75.2
			S289.8,579,297.9,580.7z"/>
		<g>
			<path class="st71" d="M253.1,399.2c0,0-0.2,1.1-0.4,2.9C252.7,400.4,253.1,399.2,253.1,399.2z"/>
			<path class="st51" d="M252.7,402.1c0,1.5,0.2,3.3,1.2,5.4c2.2,4.4,14,6.1,8.3-13.2c-5.8-19.3,10.7-21.8,10.7-21.8
				s-10.5,9.1,1.7,14c12.1,5,6.3-10.7,18.7-12.7c12.4-1.9,16.2,16.8,16.2,16.8s5-11.6,22.3-5c17.3,6.6,6.1,20.4,6.1,20.4
				s16.2,2.8,17.3,24.2c1.1,21.5-10.7,13.5-10.7,13.5c1.9,13.2-9.4,19.3-9.4,19.3s-3,5.5-5,19.5l-49.3-45.2
				C249.7,446.1,251.5,412.4,252.7,402.1z"/>
			<path class="st52" d="M287.9,430.7c21.9-10.3,42.3-23,38.1-44.7c-0.1-0.7-0.3-1.3-0.5-2c1.9,0.3,4,0.8,6.4,1.7
				c17.3,6.6,6.1,20.4,6.1,20.4s16.2,2.8,17.3,24.2c1.1,21.5-10.7,13.5-10.7,13.5c1.9,13.2-9.4,19.3-9.4,19.3s-3,5.5-5,19.5
				l-49.3-45.2c-16.3,4.5-23.6-2.6-26.7-11.9C260.8,435,266.8,440.6,287.9,430.7z"/>
		</g>
		<path class="st18" d="M324.9,455.9l11,44.9c-11.2,1.6-21.3,7.6-30.3,17.6l-5.2-48.2L324.9,455.9z"/>
		<path class="st22" d="M212.8,556.1l13.2-5.9c28.6,7.7,74.9,101.3,74.9,101.3s-11.7,16.5-25,16.5c-18.4,0-33.4,0-33.4,0l-17.3-80.4
			l-35.6,77.5l-2.9-1.1C186.7,664.1,205.8,572.3,212.8,556.1z"/>
		<path class="st66" d="M226.9,561.3c0,0,17.9,11.2,32.8,20.8c21.6,29.8,41.2,69.5,41.2,69.5s-11.7,16.5-25,16.5
			c-18.4,0-33.4,0-33.4,0l-17.3-80.4l-35.6,77.5l-1.5-0.6L226.9,561.3z"/>
		<g>
			<path class="st72" d="M385.3,669.8H241.1c-25.5,0-32.8,54.3-7.3,54.3h144.1C364.9,716.8,366.7,678.4,385.3,669.8z"/>
			<path class="st11" d="M243.3,667.1H97.4c-29-0.9-32.2,58.8-3.2,59.6l145.8,0C215.2,726,218.4,666.4,243.3,667.1z"/>
			<g>
				<path class="st11" d="M386.6,667.1H101.1l-1.2,5.7h285.5c1.8,0,3.5-1.3,3.8-2.8l0,0C389.5,668.4,388.3,667.1,386.6,667.1z"/>
				<path class="st11" d="M383.7,721.9h-285l-1.3,4.9h285c1.8,0,3.5-1.1,3.8-2.5l0,0C386.6,723,385.5,721.9,383.7,721.9z"/>
			</g>
			<g>
				<path class="st73" d="M387.8,667.1l-152.3,0l-0.6,5.7l152.3,0c0.9,0,1.9-1.3,2-2.8l0,0C389.4,668.4,388.7,667.1,387.8,667.1z"/>
				<path class="st73" d="M386.3,721.9l-152,0l-0.7,4.9l152,0c0.9,0,1.9-1.1,2.1-2.5l0,0C387.8,722.9,387.2,721.9,386.3,721.9z"/>
			</g>
			<path class="st73" d="M249.9,671.6H104c-29-0.7-32.2,50-3.2,50.8l145.8,0C211.4,720.1,214.6,669.3,249.9,671.6z"/>
			<path class="st3" d="M245.9,673.4l-128.8,0.6c-25.9-0.7-28.8,46.8-2.9,47.4l130.5,0C222.5,720.9,223.7,672.8,245.9,673.4z"/>
			<path class="st19" d="M227.8,679.8l-102.5,0c-20.4-0.5-22.6,35.4-2.2,35.9l102.5,0C208.1,715.3,210.3,679.4,227.8,679.8z"/>
		</g>
		<g>
			<path class="st29" d="M268.2,725.8l-205.9,0c-12.8,0-12.9,67.4-0.2,67.4l205.9,0C251.6,793.2,251.7,725.8,268.2,725.8z"/>
			<path class="st3" d="M416.2,733.7l-147.7,0c-26.1,0-26.3,51.6-0.1,51.6l147.7,0C401.7,778.3,398.4,741.9,416.2,733.7z"/>
			<path class="st19" d="M303.2,775c-20.2,0-20.1-31,0.1-31h103.5c-4,9.2-3.4,21.9,0.6,31H303.2z"/>
			<path class="st74" d="M414.7,725.8l-170.2,0l0,11.9l170.2,0c2.2,0,4-2.7,4-5.9l0,0C418.7,728.5,416.9,725.8,414.7,725.8z"/>
			<path class="st74" d="M414.6,781.3l-170.2,0l0,11.9l170.2,0c2.2,0,4-2.7,4-5.9l0,0C418.6,784,416.8,781.3,414.6,781.3z"/>
			<path class="st74" d="M268.1,793.2h-28.4c-9.8-12.7-9.7-54.7,0.2-67.4h28.4C251.7,725.8,251.6,793.2,268.1,793.2z"/>
			<g>
				<path class="st3" d="M70.9,759.7c0-12.8,2.1-27.7,8-27.7h146.8v2.5c-4.4,0-7.8,10.8-7.8,25.2c0,14.2,3.3,24.8,7.7,24.8v2.5H78.8
					C73,787,70.9,772.3,70.9,759.7z M215.7,759.7c0-10.3,1.7-20.6,5.5-25.2H78.9c-3.2,0-5.8,11.3-5.8,25.3c0,15.5,2.9,24.8,5.7,24.8
					h142.3C217.4,780,215.7,769.8,215.7,759.7z"/>
			</g>
		</g>
		<path class="st75" d="M162.7,667h28.1c0,0,3.9-4.5-1-7C184.8,657.5,162.7,667,162.7,667z"/>
		<path class="st75" d="M45.7,645.8l13.2,24.8c0,0,5.9,1.3,5.7-4.2C64.4,660.8,45.7,645.8,45.7,645.8z"/>
		<path class="st8" d="M305.6,538.6c-10.7-2.3-14.3-13.6-14.5-27.6c1.8-1.4,3.6-2.5,5.3-3.1c2.9-3,5.5-5.1,7.4-6.5l-3.4-31.1
			l24.5-14.3l11,44.9c-0.1,0-0.1,0-0.2,0c1.8,0.9,3.6,2,5.3,3.4c3.3,0.9,5.7,3.8,7.3,7.7C331.4,515.3,321,541.9,305.6,538.6z"/>
		<path class="st18" d="M320.8,420.1c8.2,32.9,3,64.4,3,64.4s-22.3,13.5-36.1,13.8c0,0-12.7-52.6-7.7-73.5
			C285,403.9,319.2,413.5,320.8,420.1z"/>
		<path class="st52" d="M317.8,466.1c-2.5-29.4-4.3-48.5,4.7-44.2c9,4.4,5.9,37.5,5.9,37.5L317.8,466.1z"/>
		<path class="st76" d="M281.6,451c-0.2-2,0.3-3.8,1.3-3.9c1-0.1,1.9,1.4,2.2,3.5c0.2,2-0.3,3.8-1.3,3.9S281.9,453,281.6,451z"/>
		<path class="st76" d="M296.9,448.8c-0.2-2,0.3-3.8,1.3-3.9s1.9,1.4,2.2,3.5c0.2,2-0.3,3.8-1.3,3.9S297.1,450.9,296.9,448.8z"/>
		<polygon class="st19" points="270.1,452.4 274.2,467.5 307.4,464.1 308.1,450.5 332.4,447 338.2,454.3 343.1,450 335.5,444.4 		
			"/>
		<polygon class="st18" points="282.2,452.9 272.2,454.2 275.4,465.5 282.7,464.5 		"/>
		<polygon class="st18" points="282.2,452.7 272.2,454 275.4,465.3 282.7,464.2 		"/>
		<polygon class="st77" points="282.4,464.3 279.9,464.6 272.5,454 275.6,453.6 		"/>
		<path class="st18" d="M323.7,450.1c2.9-7.9,13.9-6.1,11.9-0.3c-1.9,5.8-10.1,16.6-12.2,14.9C321.2,462.9,322.9,452.2,323.7,450.1z
			"/>
		<path class="st18" d="M283.9,454.6c-0.3-0.2-5.2,20.1-5.4,21.8c-0.3,1.8,11.4-1.8,11.4-1.8S284.8,455.1,283.9,454.6z"/>
		<path class="st32" d="M325.8,452.2c1.6-4.5,7.9-3.5,6.8-0.2c-1.1,3.3-5.8,9.5-7,8.5C324.4,459.5,325.4,453.4,325.8,452.2z"/>
		<path class="st18" d="M325.4,456.2c1-2.9,5-2.2,4.3-0.1c-0.7,2.1-3.7,6-4.5,5.4C324.5,460.8,325.1,457,325.4,456.2z"/>
		<polygon class="st18" points="285.7,452.5 289.1,464.7 304.9,462.6 305.8,450.2 		"/>
		<polygon class="st77" points="287.7,452.3 294.4,451.5 304.6,462.7 297.9,463.5 		"/>
		<path class="st17" d="M283.9,454.6c0.2,0.1,0.5,0.9,0.9,2.1c-1.5,5.8-4.2,17-4.4,18.3c-0.2,1.3,5.9-0.2,9.3-1.1
			c0.1,0.5,0.2,0.8,0.2,0.8s-11.7,3.5-11.4,1.8C278.8,474.6,283.6,454.4,283.9,454.6z"/>
		<path class="st76" d="M279.3,457.1c-1.1,0.1-2.1-1.4-2.6-3.5l4.6-0.6C281.1,455.3,280.3,457,279.3,457.1z"/>
		<path class="st76" d="M297.7,456.1c-1.3,0.1-2.4-1.9-2.9-4.6l5-0.6C299.9,453.7,299,456,297.7,456.1z"/>
		<path class="st51" d="M310.9,442c-9.9,0.6-21.2-1.5-21.2-1.5l-0.8-8.9c0,0,19.3,3.3,21,5C311.5,438.2,310.9,442,310.9,442z"/>
		<path class="st51" d="M274.4,444.3c5.8-0.4,12-3.5,12-3.5l-0.8-8.9c0,0-10.7,5.2-11.4,7C273.5,440.7,274.4,444.3,274.4,444.3z"/>
		<path class="st78" d="M288,478.2l17.7-4.7c0,0,0.8,10.8-8.1,12.5C288.7,487.7,288,478.2,288,478.2z"/>
		<path class="st79" d="M290.1,481.3c-0.8-1.6-0.9-3.2-0.9-3.2l15.1-4.1c0,0,0.1,1.6-0.3,3.5L290.1,481.3z"/>
		<path class="st68" d="M174.8,510.3c2.2-0.4,3.5-3.8,2.8-7.8c-0.3-2-1.1-3.7-2-4.9c1.6,0.9,2.9,3.2,3.4,6c0.6,3.9-0.6,7.4-2.8,7.8
			c-1.1,0.2-2.2-0.4-3.1-1.6C173.5,510.2,174.2,510.4,174.8,510.3z"/>
		<path class="st69" d="M172.7,493.6c2.1-0.4,4.3,1.6,5.8,4.8c-1.4-2-3.1-3.2-4.7-2.9c-3,0.5-4.7,5.4-3.8,10.9
			c0.3,1.6,0.7,3.1,1.3,4.4c-1.1-1.6-2-3.8-2.4-6.2C168,498.9,169.7,494.1,172.7,493.6z"/>
		<path class="st17" d="M233.7,524.6c-0.6,4.9,0.9,8,2.3,8.5c1.4,0.6,6.1-1.3,6.9-2.8C243.6,528.7,234.2,520.3,233.7,524.6z"/>
		<path class="st18" d="M235.2,521.8c0.4,9.2,1.5,10,3.3,10.8c1.8,0.8,7.2-0.3,7.8-1.8c0.6-1.4-0.4-5.1-1.9-4.7s-3.2,0.4-3.2,0.4
			L235.2,521.8z"/>
		<path class="st18" d="M239.9,519.1c2.4-3.7,21.3-3.6,31.3,3.7L261,533c-3.3-5.4-12.1-5-17.6-4.5
			C237.9,529,237.5,522.8,239.9,519.1z"/>
		<path class="st18" d="M239.1,523.5c0.4,9.2,1.5,10,3.3,10.8c1.8,0.8,7.2-0.3,7.8-1.8c0.6-1.4-0.4-5.1-1.9-4.7
			c-1.4,0.3-3.2,0.4-3.2,0.4L239.1,523.5z"/>
		<path class="st18" d="M243.8,517.2c-6.3,1.2-10.8,3.6-12.9,5.9c-2.1,2.3-4.7,8.2-4.8,9.5c-0.1,1.3,3.5,3,4.3,1.2
			c0.8-1.8,3.2-7.1,3.9-7.3c0.7-0.2,7.1-3,7.4-2.9C241.9,523.7,243.8,517.2,243.8,517.2z"/>
		<path class="st17" d="M189.3,564.8c-14.1-6-21.7-3.4-25.1-13.2l21.4,0.8L189.3,564.8z"/>
		<path class="st17" d="M173.2,556.6c-4.7-2.7-5.9-6.5-5.9-9s-3.8-3.1-3.9-0.7c-0.1,2.4,0.8,5.3,1.9,6.8
			C166.2,555.2,173.2,556.6,173.2,556.6z"/>
		<path class="st17" d="M178.5,557c-4.7-2.7-5.9-6.5-5.9-9c0-2.5-3.8-3.1-3.9-0.7s0.8,5.3,1.9,6.8C171.6,555.6,178.5,557,178.5,557z
			"/>
		<path class="st17" d="M184.2,557.5c-4.7-2.7-5.9-6.5-5.9-9c0-2.5-3.8-3.1-3.9-0.7c-0.1,2.4,0.8,5.3,1.9,6.8
			C177.3,556.1,184.2,557.5,184.2,557.5z"/>
	</g>
</g>
</svg>
