<?xml version="1.0" encoding="utf-8"?>
<!-- Generator: Adobe Illustrator 24.1.3, SVG Export Plug-In . SVG Version: 6.00 Build 0)  -->
<svg version="1.1" id="b759170a-51c3-4e2f-999d-77dec9fd6d11"
	 xmlns="http://www.w3.org/2000/svg" xmlns:xlink="http://www.w3.org/1999/xlink" x="0px" y="0px" viewBox="0 0 1140.6 636.3"
	 style="enable-background:new 0 0 1140.6 636.3;" xml:space="preserve">
<style type="text/css">
	.st0{fill:#EBF3FA;}
	.st1{fill:#DFEBFD;}
	.st2{fill:#BED7FB;}
	.st3{fill:#9EC3F6;}
	.st4{fill:#CDE0FB;}
	.st5{fill:#FFFFFF;}
	.st6{fill:#ADCBF9;}
	.st7{fill:#D86713;}
	.st8{fill:#F99746;}
	.st9{fill:#EE9849;}
	.st10{fill:#F1A34F;}
	.st11{opacity:0.4;fill:#D86713;}
	.st12{fill:#699DEE;}
	.st13{fill:#E9F3FE;}
	.st14{fill:#AFCDFB;}
	.st15{fill:#2B478B;}
	.st16{fill:#233862;}
	.st17{fill:#C65447;}
	.st18{fill:#FFB27D;}
	.st19{fill:#E2915A;}
	.st20{fill:#FCECDB;}
	.st21{fill:#548EE2;}
	.st22{fill:#F4D2B8;}
	.st23{fill:#568CDB;}
	.st24{fill:#B5453C;}
	.st25{fill:#ED7D2B;}
	.st26{fill:#ED975D;}
	.st27{fill:#EBF3FF;}
</style>
<g>
	<path class="st0" d="M90.4,634.8c0,0-128.2-137.7-21.7-286.7c94.5-132.3,204.8-123.2,285.6-69.5c34.4,22.9,133.7,2.8,218.3-131.8
		c115.3-183.5,514.8-72.2,441.9,210.1c-35.3,136.6,107.3,141.6,34.7,278.2L90.4,634.8z"/>
	<g>
		
			<rect x="128.7" y="473.7" transform="matrix(0.7358 -0.6772 0.6772 0.7358 -312.2662 270.3879)" class="st1" width="123.3" height="123.3"/>
		
			<rect x="95.4" y="486.7" transform="matrix(0.7358 -0.6772 0.6772 0.7358 -296.5377 238.2286)" class="st2" width="123.3" height="24.8"/>
	</g>
	<g>
		<polygon class="st3" points="459.1,90.7 521.3,99.6 480,71.5 477.9,80.5 462.8,83.2 		"/>
		<polygon class="st4" points="521.3,99.6 469.5,72.9 418.7,70.4 		"/>
		<polygon class="st4" points="480,71.5 521.3,99.6 489.3,55.6 		"/>
	</g>
	<g>
		<path class="st5" d="M807,213.5l-15.7,11.2l-15.7-11.1c3.5-4.9,9.2-8.2,15.7-8.2C797.8,205.5,803.6,208.6,807,213.5z"/>
		<g>
			<path class="st5" d="M791.4,178.1c-15.7,0-29.6,7.8-38.1,19.8l9.9,7c6.2-8.8,16.5-14.6,28.1-14.6c11.5,0,21.7,5.7,28,14.4
				l9.9-7.1C820.8,185.8,807,178.1,791.4,178.1z"/>
		</g>
		<g>
			<path class="st5" d="M791.4,126.1c-33.3,0-62.7,16.5-80.6,41.8l9.9,7c15.7-22.1,41.5-36.7,70.6-36.7c28.9,0,54.6,14.3,70.3,36.1
				l9.9-7.1C853.6,142.3,824.4,126.1,791.4,126.1z"/>
		</g>
		<g>
			<path class="st5" d="M791.4,154.6c-23.7,0-44.7,11.7-57.5,29.7l9.9,7c10.6-14.8,27.9-24.5,47.5-24.5c19.4,0,36.7,9.5,47.3,24.1
				l9.9-7.1C835.7,166.1,814.9,154.6,791.4,154.6z"/>
		</g>
	</g>
	<path class="st6" d="M466.7,281.7l-14.4-0.3c4.6,6,5.6,11.5,2.8,16.1c-2.9,4.8-9.7,8.7-20,11.6c7.8-20.7,11.7-42.4,11.7-64.8
		c0-48.3-18.8-95.6-54.3-131C358.2,78.9,311.7,59,261.5,59c-28.2,0-55.5,6.3-80.3,18.2c0,0,0,0,0,0c-8-2.4-15.7-4.4-23.2-5.9
		c-37.8-7.7-64.6-2.4-75.5,14.9c-10.4,16.5-4.7,41.2,15.9,70.1c0,0,0,0,0,0c-4.6,8.5-9,18.6-12.3,28.2c-38.7,2.3-59.4,9.1-66.9,21.4
		c-8.8,14.4,3.2,33.6,41.5,52.3c5.3,2.6,10.9,5.1,16.8,7.7c4.6,40.3,22.9,79.3,53,109.4c17,17,36.8,30.3,58.9,39.7
		c67.6,28.5,148.2,15.2,203.2-39.7c16.6-16.6,29.7-35.9,39-57.2c18.9-3.9,31.3-10,36.2-18.1C471.1,294.5,470.7,288.3,466.7,281.7z
		 M422.4,312c-12.6,2.3-28.2,3.6-46.5,3.8c-28.4,0.3-61-1.9-95.4-6.4c2.9-6.3,5.7-12.8,8.5-19.4c10.7,3.6,21,6.4,30.9,8.4
		c11.3,2.3,21.6,3.4,30.8,3.4c21.6,0,37.1-6.2,44.7-18.4c1.3-2,2.3-4.1,3.1-6.4h-11c-0.2,0.3-0.4,0.7-0.6,1
		c-5.7,9-18.4,13.7-36.2,13.7c-8.5,0-18.2-1.1-28.9-3.2c-9.3-1.9-19-4.5-29.1-7.9c2.7-6.6,5.2-13.4,7.7-20.3
		c6.7-18.5,12.5-36.8,17.1-54.5c37.7,5.6,77,5.7,114.8,2.9c2.4,11.6,3.6,23.5,3.6,35.5C436,267.8,431.5,290.6,422.4,312z
		 M193.1,403.9c-5.4-1.9-8.1-9.6-9.4-15.7c-2.1-9.6-2.5-23.2-1.1-39.2c0.7-8.1,1.8-16.7,3.4-25.7c21.9,5.8,43.7,13.4,64.8,22.4
		c-4.8,8.2-9.6,15.8-14.4,22.7c-9.2,13.2-18.2,23.3-26,29.4C205.5,401.7,198.4,405.8,193.1,403.9z M255.6,337.1
		c-22.1-9.5-44.9-17.4-67.9-23.5c0.8-4.2,1.7-8.4,2.7-12.7c6.4,1.5,12.9,2.9,19.4,4.2c19.2,3.9,38.4,7.3,57.2,10
		C263.3,322.8,259.5,330.1,255.6,337.1z M214,298.1c-7.4-1.5-14.7-3.1-21.9-4.8c3.4-14.1,7.5-28.8,12.4-43.7
		c25.2,15.5,50.9,28.1,75.2,37.1c-3,7.3-6.2,14.4-9.4,21.2C251.9,305.3,233,302,214,298.1z M152.4,108c14,28.7,41.1,52.4,70.2,68.1
		c-7,15.4-13.8,31.8-19.9,48.8c-1.2,3.2-2.3,6.3-3.4,9.5c-36.9-24-68.1-51.5-88.6-78.2c0,0,0,0,0,0
		C121.5,137.7,135.6,121.5,152.4,108z M310.1,81.4c5.4,1.9,8.1,9.6,9.4,15.7c2.1,9.6,2.5,23.2,1.1,39.2c-1.5,17.5-5,37.4-10.2,58.5
		c-25.6-4.4-51.3-11.7-74.9-23.1c10.1-21,20.7-39.7,31.3-54.9c9.2-13.2,18.2-23.3,26-29.4c4.1-3.2,9.6-6.5,14.4-6.5
		C308.1,80.9,309.1,81,310.1,81.4z M307.9,204.4c-4.5,17-10.1,34.8-16.6,52.7c-2.5,6.9-5.1,13.7-7.8,20.4
		c-24.4-9-50.3-21.8-75.8-37.6c1.3-3.8,2.7-7.7,4.1-11.6c6-16.6,12.6-32.7,19.5-47.7C255.3,192.2,281.4,199.7,307.9,204.4z
		 M384.9,120.9c22.6,22.6,37.7,49.8,45.3,78.3c-40.2,2.9-77.1,2-110.1-2.8c5.2-21.4,8.8-41.5,10.3-59.2c1.7-19.6,1.5-42.8-6.5-55.9
		C346.9,90.1,367.5,103.4,384.9,120.9z M261.5,69.7c12.1,0,24,1.2,35.6,3.6c-13.7,6-27.7,22.6-38.3,37.8c-10.9,15.6-21.7,34.7-32,56
		c-27.7-15-53.8-38.1-66.3-65.3C189.6,81.2,224.7,69.7,261.5,69.7z M90.9,91.6c5.7-9,18.4-13.7,36.2-13.7c8.5,0,18.2,1.1,28.9,3.2
		c4,0.8,8.2,1.8,12.4,2.9c0,0,0,0,0,0c-25.4,14.7-47.8,36-64.5,62.7c0,0,0,0,0,0C88.1,123.3,83.4,103.5,90.9,91.6z M105.5,165.8
		C105.5,165.8,105.5,165.8,105.5,165.8c21.6,26.9,53.4,54.5,90.5,78.4c-5.3,16-9.8,31.8-13.4,46.9c-30.8-7.4-66.6-18-94.8-29.9
		c-2.3-23.4,0.2-47.2,7.2-69.5C97.7,182.9,101.3,174,105.5,165.8z M69.1,252.8c-33.4-16.3-48.6-32-41.8-43.1
		c5.5-9,25.5-15.2,56.2-17.4c-6.2,20.9-8.3,42.6-7.1,64C73.9,255.1,71.5,254,69.1,252.8z M180.8,298.7c-1,4.2-1.8,8.4-2.6,12.5
		c-2.1-0.5-4.3-1-6.4-1.5c-36.2-8.2-63.4-9.9-76-10.2c-3.1-9.4-5.4-19-6.9-28.8C113.6,280.2,141.3,289.3,180.8,298.7z M99.4,309.4
		c13.4,0.5,38.3,2.6,70.2,9.8c2.3,0.5,4.6,1.1,6.8,1.6c-1.6,9.6-2.8,18.7-3.6,27.3c-1.4,16.3-1.5,35,3,48.4
		c-13.8-7.8-26.4-17.4-37.8-28.7C121.1,350.8,108.1,331,99.4,309.4z M208.5,410.7c12.9-6.8,25.9-22.3,35.9-36.6
		c5.2-7.4,10.3-15.6,15.4-24.4c29.3,13.3,57.5,29.6,84,48.6C300.2,421.6,251,424.3,208.5,410.7z M384.9,367.8
		c-9.6,9.7-20.3,18.1-31.8,25.2c-27.8-20.3-57.5-37.7-88.5-51.8c4.3-7.8,8.5-16,12.5-24.6c28.3,3.8,55.6,6,80.5,6.6
		c6.5,0.2,12.8,0.2,18.9,0.1c15.9-0.2,30-1.1,42.1-2.8C410.2,337.9,398.8,353.8,384.9,367.8z"/>
	<g>
		<g>
			<path class="st7" d="M380.9,310.6l-25.6,304.7c0,0-2.7,18.5,11.1,18.5c22.6,0.1,112.5,0,112.5,0s-17-3.8-16.8-12.5
				c0.2-10.2,30-313.6,30-313.6L380.9,310.6z"/>
			<path class="st8" d="M486.1,628.3c-4.4,0-90.3,0.3-112.3,0c-9.6-0.1-11.3-8.5-11.3-14c0-2.6,0.3-4.5,0.3-4.5l0.7-7.9l1.7-20.2
				l1.5-17.8l1.9-22.9l1.6-19.3l18.2-216.5l111-2.9c0,0-12.5,127-21.4,219.4c-1,10.3-1.9,20.2-2.8,29.4c-0.3,2.9-0.6,5.8-0.8,8.6
				c-0.8,8.7-1.6,16.8-2.2,23.9c-0.3,3.7-0.7,7.2-0.9,10.4c-1.1,12.5-1.8,20.4-1.8,21.9c0,0.9,0.1,1.7,0.2,2.5
				C471.5,628,484.4,628.3,486.1,628.3z"/>
			<polygon class="st8" points="111.3,144.8 173.7,395.5 182.3,429.9 211.3,546.7 751.5,546.7 644.4,144.8 			"/>
			<polygon class="st9" points="111.3,144.8 102.6,147.6 199.8,555.4 211.3,546.7 			"/>
			<polygon class="st7" points="199.8,555.4 736.7,555.4 751.5,546.7 211.3,546.7 			"/>
			
				<rect x="388.4" y="628.4" transform="matrix(-1 -1.224647e-16 1.224647e-16 -1 892.9603 1262.3983)" class="st10" width="116.2" height="5.5"/>
			<polygon class="st10" points="725.4,472.6 637.7,150.1 110.4,150.1 110.4,144.8 644.4,144.8 731.7,471.9 			"/>
			<polygon class="st7" points="475.1,555.4 474.5,559.6 365.1,581.7 366.6,563.9 367.3,555.4 			"/>
			<path class="st11" d="M486.1,628.3c-4.4,0-90.3,0.3-112.3,0c-9.6-0.1-11.3-8.5-11.3-14l108.8-20.5c-1.1,12.5-1.8,20.4-1.8,21.9
				c0,0.9,0.1,1.7,0.2,2.5C471.5,628,484.4,628.3,486.1,628.3z"/>
			<polygon class="st11" points="448.6,465.3 211.3,546.7 182.3,429.9 			"/>
			<polygon class="st12" points="111.3,144.8 644.4,144.8 730.8,467.8 188.9,467.8 			"/>
		</g>
		<path class="st7" d="M495.7,508.6c-1.5-7.9-9.2-14.3-17.1-14.3c-7.9,0-13.1,6.4-11.6,14.3c1.5,7.9,9.2,14.3,17.1,14.3
			C492.1,522.9,497.3,516.5,495.7,508.6z"/>
		<polygon class="st13" points="705.7,453.8 206.6,453.8 150.1,228.6 145.7,211.3 142,196.6 139.1,184.8 133.4,162.1 625.3,162.1 
			625.6,163.3 631.6,184.8 634.8,196.6 638.9,211.3 643.6,228.6 		"/>
		<polygon class="st13" points="705.7,454.5 206.6,454.5 150.1,229.4 145.7,212.1 142,197.4 139.1,185.6 133.4,162.8 625.3,162.8 
			625.6,164.1 631.6,185.6 634.8,197.4 638.9,212.1 643.6,229.4 		"/>
		<polygon class="st14" points="631.6,184.8 139.1,184.8 133.4,162.1 625.1,162.1 625.6,163.3 		"/>
		<g>
			<path class="st13" d="M147,173.4c-0.6-2.4,0.9-4.3,3.2-4.3c2.4,0,4.8,1.9,5.4,4.3c0.6,2.4-0.9,4.3-3.2,4.3
				C150,177.8,147.6,175.8,147,173.4z"/>
			
				<ellipse transform="matrix(0.662 -0.7495 0.7495 0.662 -73.9849 182.83)" class="st13" cx="165.7" cy="173.4" rx="3.8" ry="4.9"/>
			<path class="st13" d="M176.8,173.4c-0.6-2.4,0.9-4.3,3.2-4.3c2.4,0,4.8,1.9,5.4,4.3c0.6,2.4-0.9,4.3-3.2,4.3
				C179.8,177.8,177.4,175.8,176.8,173.4z"/>
		</g>
		<g>
			<path class="st15" d="M362.1,454.5h-49.4c-0.5-3.9-0.9-7.9-1.3-12.2c-0.7-7.6-1.2-15.8-1.5-24.4c-0.1-2-0.2-4-0.2-6
				c-0.1-2.5-0.2-5.1-0.2-7.7c-0.1-4.4-0.2-8.8-0.3-13.3c0,0,0,0,0,0c-0.1-5.7-0.1-11.4-0.1-17.2c0,0,0,0,0,0c0-1.4,0-2.9,0-4.3v0
				c0-1.3,0-2.7,0-4c0-12.3,0.2-24.4,0.5-35.6c0.6-24.8,1.5-45.5,2-55.5v0c0.2-4.1,0.3-6.4,0.3-6.4c0,0,0,0,0,0c0.1,0,0.9,0.2,2,0.4
				c0.9,0.2,2,0.5,3.2,0.9h0c1.1,0.3,2.4,0.8,3.7,1.3c0,0,0,0,0,0c2.2,0.9,4.6,1.9,6.9,3.3c0,0,0.1,0,0.1,0.1c3.7,2.3,7,5.3,8.5,9.3
				c1.3,3.4,4.4,21.7,8,46c0.1,0.7,0.2,1.4,0.3,2.1c1.9,12.9,4.1,27.4,6.2,42.1c2.2,15.7,4.5,31.6,6.5,46.5
				C359.1,432.7,360.7,444.5,362.1,454.5z"/>
			<path class="st16" d="M348.2,454.5h-57.4c-1.1-4.7-2.1-9.3-3-13.6c-2.5-11.8-4.2-21.5-4.1-26.7c0-2.4,1-4.3,2.5-5.8
				c1.1-1,2.5-1.8,4.1-2.4c4.8-1.8,11.8-2.1,19.1-1.7c2.5,0.2,5,0.4,7.5,0.7c13.7,1.7,26.3,5,26.3,5s0.8,3.4,1.8,9.4
				c0.8,4.5,1.6,10.4,2.2,17.5c0.4,4.1,0.7,8.5,0.8,13.3C348.1,451.6,348.2,453.1,348.2,454.5z"/>
			<path class="st17" d="M321.7,414.3l-0.6,4.2l-2.8,20.2l-0.5,3.4l-1.7,12.5h-59.9c-0.5-8.3-0.9-16.3-1-23.3c0-0.8,0-1.5,0-2.3
				c0-10.6,0.9-18.4,4-20.4c3.4-2.2,14.8-1.6,26.9-0.1c1.2,0.1,2.4,0.3,3.6,0.5c7.1,1,14.1,2.1,19.8,3.1c3,0.5,5.5,1,7.5,1.4
				C320,414,321.7,414.3,321.7,414.3z"/>
			<path class="st5" d="M255.3,278.4c0,0,32.9-21.3,56.5-10.4c3.8,1.7,8,6.6,11.1,10c8.5,9.4,25.2,158.7,25.2,158.7
				s-47.3,16-92.8-5.4V278.4z"/>
			<path class="st15" d="M313.7,267.5c0,0,33.3,13.6,37.8,24.1c4.5,10.5,19.2,74.9,19.2,82.4c0,7.6-25.5,1.7-29.6-10.5
				c-3.4-10.1-14.9-41.2-21-60.8L313.7,267.5z"/>
			<g>
				<path class="st18" d="M306.7,277.9c-7.3,1.4-17.9-0.1-25.8-5.2c3.5-8.4,5-15.1,5.5-19.4c0-0.2,0.1-0.5,0.1-0.7
					c0.2-2.2,0.2-3.7,0.1-4.4h18.8c0,0,5.1,2.3,5.1,4c0,0.9,0,1.7,0,2.5c0,2.2,0.1,4,0.2,5.7c0.4,5.3,1,7.8,1,7.8
					S314.1,276.5,306.7,277.9z"/>
				<path class="st19" d="M310.8,260.3c-14.2,2.8-22.5-5-24.4-7c-0.3-0.3-0.4-0.5-0.4-0.5c0.2-0.1,0.3-0.1,0.5-0.2
					c5.3-2.1,17.3-0.4,24,2C310.6,256.8,310.7,258.7,310.8,260.3z"/>
				<path class="st18" d="M281.8,245.1c2.5,13.7,20.2,13.2,27.8,12.4c2.1-0.2,3.5-0.5,3.5-0.5c2.4-0.6,3.8-4.5,4.4-9.5
					c1.2-9.9-0.3-24.4-2-28.1c-2.5-5.6-7.3-11.6-25-7.3C272.7,216.4,278.6,227.5,281.8,245.1z"/>
				<path class="st16" d="M316.2,211.7c-2.4-3.4-7.6-7.5-12.3-10c-10.1-5.4-22.9,0.2-23,0.2c-14.5,6.4-18.3,17.5-10.6,34.8
					c8.1,18.3,15.9,16.3,15.9,16.3s-1.6-1-1.5-6.7c0-0.3,0-0.6,0-0.8c0.1-1.2-0.3-2.3-1.2-3.1c-1.8-1.6-2.7-6.5-1.2-7.8
					c1.8-1.6,4.4,0.4,5.2,1.9c0.7,1.1,2,1.5,3.2,0.7c4.5-2.9,1.6-8.6,5.9-12.1c4.3-3.5,13.1-0.6,19.6-3.3
					C324.8,218.5,318.1,214.3,316.2,211.7z"/>
			</g>
			<path class="st15" d="M318.6,454.5H247c0.5-14.8,1.2-32.6,1.9-50.5c0.2-4.7,0.4-9.3,0.5-14c0.1-2,0.2-3.9,0.2-5.9
				c1.6-39.9,3.2-75.9,3.5-77.8c0.8-4.4,1.5-8.1,2.2-11.4c2.2-9.4,5-14.6,11.1-19.1c0.6-0.5,5.5-2.9,9.8-5c3.5-1.7,6.6-3.3,6.7-3.3
				v0h0c0.7,0.3,1.5,1.3,2.3,2.8c0.8,1.5,1.7,3.4,2.6,5.7c3.3,8.4,6.8,21.3,9.3,30.9c0,0,0,0,0,0c0,0,0,0,0,0c0,0,0,0,0,0
				c1.6,6.2,2.7,11,3,12.4c0.6,2.3,1.3,6.9,2.1,13v0c1.2,8.4,2.5,19.7,4,32.6v0c0.2,1.3,0.3,2.7,0.5,4c0.2,1.5,0.3,3.1,0.5,4.7v0
				c0.1,0.5,0.1,1,0.2,1.5v0c0.6,5.1,1.1,10.4,1.7,15.7c0,0,0,0,0,0c0.5,4.4,7.2,7.6,7.6,12.1c0,0.3,0.1,1,0.1,1.9
				c0.1,1.9,0.2,4.9,0.3,8.4c0.1,1.6,0.1,3.2,0.2,4.9c0.3,7.5,0.6,15.7,1,19.6c0,0.2,0,0.4,0,0.7c0,0.8,0.1,1.9,0.1,3.4
				C318.5,445.1,318.6,449.5,318.6,454.5z"/>
			<path class="st16" d="M269.7,322.4c0,0.1-1.1,40.3,29.1,45.2c30.3,4.9,10.2,6.2,10.2,6.2s-56.9-2.4-57.9-3.9
				C250.2,368.4,269.7,322.4,269.7,322.4z"/>
			<path class="st16" d="M295.3,384.9c0,0-0.6,0.4-1.7,1.1c0,0,0,0-0.1,0c-4.6,2.9-18.3,11-38.3,16.4c-2.1,0.6-4.3,1.1-6.5,1.6
				c0.2-4.7,0.4-9.3,0.5-14c-2.6-0.2-5.2-0.5-7.5-1c0.1-0.6,0.2-1.2,0.2-1.8c2.5-1,5.1-2,7.5-3c2-0.8,3.9-1.5,5.7-2.2
				c8.2-3.1,14.3-5.2,14.3-5.2l24.3,7.7L295.3,384.9z"/>
			<path class="st15" d="M301.7,384.2c0,0-3.1,0.8-8.1,1.8c0,0,0,0-0.1,0c-9.1,1.8-24.5,4.4-38.3,4.3c-2,0-4-0.1-5.9-0.3
				c-2.6-0.2-5.2-0.5-7.5-1c-5-1.1-9.2-2.9-12-5.7c-20.4-20.8,11.2-95.5,17.8-102.8c7.8-8.5,21.9-11.5,29.7-12.5
				c0.3,0,0.6-0.1,0.9-0.1c2.7-0.3,4.5-0.4,4.6-0.4c0,0,0,0,0,0s-0.6,2-1.6,5.3c-0.4,1.3-0.9,2.8-1.4,4.5
				c-4.8,15.7-14.1,46.6-18.1,64c-1.5,6.4-2.3,10.9-1.9,12.3c1.6,5.9,18.1,9,28.6,10.4c4.4,0.6,7.7,0.8,8.4,0.9c0.1,0,0.1,0,0.2,0
				l0.6,2.5l1.4,5.9l1.4,5.8L301.7,384.2z"/>
			<polygon class="st8" points="358.7,420 288.5,417.1 302.7,329.6 372.9,332.6 			"/>
			<path class="st18" d="M297,364.9c0,0,13.7-1,14.3,2.2c1.6,7.4-11.7,13.5-16.1,13.1C291,379.9,293.9,364.4,297,364.9z"/>
			<path class="st18" d="M369.1,350.3c0,0-13.1-4.1-14.5-1.1c-3.3,6.9,8.3,15.9,12.6,16.5C371.5,366.3,372.3,350.6,369.1,350.3z"/>
			<path class="st16" d="M284.4,263.2c0,0-5.7,2.7-8.6,6.9c0,0,21.5,37.3,21.4,36.9C297,306.7,289.9,268,284.4,263.2z"/>
			<path class="st16" d="M311.1,263.7c1.9,0.7,5.5,4.4,6.3,6.5l2.6,32.6c0,0-5.5-23.9-8.2-34.7C311.1,265.3,311.2,264.5,311.1,263.7
				z"/>
			<path class="st17" d="M326,330.6c0,0,0.6-2.4,3.7-2.1c3.2,0.3,21.1,1.2,21.1,1.2s3.5-0.1,3.1,2.2L326,330.6z"/>
			<path class="st5" d="M305.4,248.2c0,0,2.3,2.1,6.1,1.5c2.2-0.4,3.5-3.3,3.5-3.3S310.7,245.6,305.4,248.2z"/>
		</g>
		<g>
			<g>
				<polygon class="st5" points="638,275.4 586.1,275.6 569.3,211.2 621.2,211 				"/>
				<g>
					<polygon class="st6" points="608.3,219.5 586.6,219.6 586.3,218.6 608.1,218.5 					"/>
					<polygon class="st6" points="611.8,222.1 584.5,222.2 584.2,221.3 611.5,221.2 					"/>
					<g>
						<polygon class="st6" points="619.3,235.2 583.8,235.4 583.6,234.4 619,234.3 						"/>
						<polygon class="st6" points="620.1,238.4 584.6,238.5 584.4,237.5 619.8,237.4 						"/>
						<polygon class="st6" points="620.9,241.5 585.5,241.6 585.2,240.7 620.7,240.5 						"/>
						<polygon class="st6" points="621.7,244.6 586.3,244.8 586,243.8 621.5,243.7 						"/>
						<polygon class="st6" points="622.6,247.8 587.1,247.9 586.9,247 622.3,246.8 						"/>
					</g>
					<g>
						<polygon class="st6" points="624.5,255.4 589.1,255.5 588.9,254.6 624.3,254.5 						"/>
						<polygon class="st6" points="625.4,258.6 589.9,258.7 589.7,257.7 625.1,257.6 						"/>
						<polygon class="st6" points="626.2,261.7 590.7,261.8 590.5,260.9 625.9,260.7 						"/>
						<polygon class="st6" points="627,264.8 591.6,265 591.3,264 626.8,263.9 						"/>
						<polygon class="st6" points="627.8,268 592.4,268.1 592.1,267.1 627.6,267 						"/>
					</g>
				</g>
			</g>
			<g>
				<polygon class="st5" points="658.9,355.4 607,355.5 590.2,291.2 642,291 				"/>
				<g>
					<polygon class="st6" points="629.2,299.5 607.5,299.5 607.2,298.6 628.9,298.5 					"/>
					<polygon class="st6" points="632.7,302.1 605.4,302.2 605.1,301.2 632.4,301.1 					"/>
					<g>
						<polygon class="st6" points="640.2,315.2 604.7,315.3 604.5,314.4 639.9,314.2 						"/>
						<polygon class="st6" points="641,318.3 605.5,318.5 605.3,317.5 640.7,317.4 						"/>
						<polygon class="st6" points="641.8,321.5 606.4,321.6 606.1,320.6 641.6,320.5 						"/>
						<polygon class="st6" points="642.6,324.6 607.2,324.7 606.9,323.8 642.4,323.7 						"/>
						<polygon class="st6" points="643.4,327.7 608,327.9 607.7,326.9 643.2,326.8 						"/>
					</g>
					<g>
						<polygon class="st6" points="645.4,335.4 610,335.5 609.7,334.6 645.2,334.4 						"/>
						<polygon class="st6" points="646.3,338.5 610.8,338.7 610.6,337.7 646,337.6 						"/>
						<polygon class="st6" points="647.1,341.7 611.6,341.8 611.4,340.8 646.8,340.7 						"/>
						<polygon class="st6" points="647.9,344.8 612.4,344.9 612.2,344 647.6,343.8 						"/>
						<polygon class="st6" points="648.7,347.9 613.3,348.1 613,347.1 648.5,347 						"/>
					</g>
				</g>
			</g>
			<g>
				<polygon class="st5" points="679.9,435.9 628,436.1 611.2,371.7 663.1,371.5 				"/>
				<g>
					<polygon class="st6" points="650.2,380 628.5,380 628.2,379.1 650,379 					"/>
					<polygon class="st6" points="653.7,382.6 626.4,382.7 626.1,381.8 653.4,381.7 					"/>
					<g>
						<polygon class="st6" points="661.2,395.7 625.7,395.8 625.5,394.9 660.9,394.8 						"/>
						<polygon class="st6" points="662,398.8 626.6,399 626.3,398 661.8,397.9 						"/>
						<polygon class="st6" points="662.8,402 627.4,402.1 627.1,401.2 662.6,401 						"/>
						<polygon class="st6" points="663.7,405.1 628.2,405.2 628,404.3 663.4,404.2 						"/>
						<polygon class="st6" points="664.5,408.3 629,408.4 628.8,407.4 664.2,407.3 						"/>
					</g>
					<g>
						<polygon class="st6" points="666.5,415.9 631,416 630.8,415.1 666.2,414.9 						"/>
						<polygon class="st6" points="667.3,419 631.8,419.2 631.6,418.2 667,418.1 						"/>
						<polygon class="st6" points="668.1,422.2 632.7,422.3 632.4,421.3 667.9,421.2 						"/>
						<polygon class="st6" points="668.9,425.3 633.5,425.4 633.2,424.5 668.7,424.4 						"/>
						<polygon class="st6" points="669.7,428.4 634.3,428.6 634,427.6 669.5,427.5 						"/>
					</g>
				</g>
			</g>
			<g>
				<g>
					<polygon class="st5" points="611.7,436.4 430.4,437.1 378.2,237.3 401.9,211.9 552.9,211.3 					"/>
					<polygon class="st6" points="503,245.1 439.1,245.3 438.4,242.5 502.3,242.3 					"/>
					<polygon class="st6" points="513.2,252.8 433,253.1 432.2,250.3 512.5,250 					"/>
					<g>
						<polygon class="st6" points="535.2,291.4 431,291.7 430.3,288.9 534.5,288.6 						"/>
						<polygon class="st6" points="537.7,300.6 433.5,301 432.7,298.2 536.9,297.8 						"/>
						<polygon class="st6" points="540.1,309.8 435.9,310.2 435.1,307.4 539.3,307 						"/>
						<polygon class="st6" points="542.5,319 438.3,319.4 437.5,316.6 541.7,316.2 						"/>
						<polygon class="st6" points="544.9,328.3 440.7,328.6 439.9,325.8 544.2,325.5 						"/>
					</g>
					<g>
						<polygon class="st6" points="550.7,350.7 446.5,351.1 445.8,348.3 550,347.9 						"/>
						<polygon class="st6" points="553.2,359.9 449,360.3 448.2,357.5 552.4,357.1 						"/>
						<polygon class="st6" points="555.6,369.1 451.4,369.5 450.6,366.7 554.8,366.3 						"/>
						<polygon class="st6" points="558,378.4 453.8,378.8 453,376 557.2,375.6 						"/>
						<polygon class="st6" points="560.4,387.6 456.2,388 455.4,385.2 559.7,384.8 						"/>
					</g>
				</g>
				<polygon class="st6" points="378.2,237.3 408.5,237.2 401.9,211.9 				"/>
			</g>
		</g>
	</g>
	<g>
		<g>
			<g>
				<path class="st20" d="M811.3,593.1H667.3v-52.1h144.5c13.5,0,24.4,10.9,24.4,24.4v2.7C836.2,581.9,825.1,593.1,811.3,593.1z"/>
				<path class="st12" d="M962.2,562.4v7.8c0,4.2-1.1,8.1-3.1,11.5c-4,6.8-11.3,11.4-19.7,11.4H662.8c-1.8,0-3.3-1.5-3.3-3.3v-1.2
					c0-1.8,1.5-3.3,3.3-3.3h168.6c0.9-1.1,1.7-2.3,2.4-3.6c1.6-3,2.5-6.4,2.5-10v-10c0-1.8-0.2-3.6-0.7-5.3
					c-0.8-2.9-2.1-5.5-3.9-7.7H662.8c-1.8,0-3.3-1.5-3.3-3.3v-1.2c0-1.8,1.5-3.3,3.3-3.3h278c9.8,0,18.1,6.6,20.6,15.5
					C961.9,558.4,962.2,560.3,962.2,562.4z"/>
				<path class="st21" d="M961.4,556.5H835.6c-0.8-2.9-2.1-5.5-3.9-7.7H662.8c-1.8,0-3.3-1.5-3.3-3.3v-1.2c0-1.8,1.5-3.3,3.3-3.3
					h278C950.6,540.9,958.8,547.5,961.4,556.5z"/>
			</g>
			<polygon class="st22" points="667.3,567 687.8,567.9 667.3,568.4 			"/>
			<polygon class="st22" points="667.3,575.2 716.1,576.1 667.3,576.6 			"/>
		</g>
		<g>
			<g>
				<g>
					<path class="st15" d="M701.4,633.5h158.2V593H700.2c-10.3,0-18.6,8.3-18.6,18.6v2.1C681.6,624.6,690.5,633.5,701.4,633.5z"/>
					<path class="st20" d="M849.7,633.5h179.8V593H849.2c-10.5,0-19,8.5-19,19v2.1C830.2,624.8,838.9,633.5,849.7,633.5z"/>
					<path class="st15" d="M818.3,633.5h217.4c1.7,0,3-1.4,3-3l0,0c0-1.7-1.4-3-3-3H818.3c-1.7,0-3,1.4-3,3l0,0
						C815.2,632.2,816.6,633.5,818.3,633.5z"/>
					<path class="st15" d="M818.3,599h217.4c1.7,0,3-1.4,3-3l0,0c0-1.7-1.4-3-3-3H818.3c-1.7,0-3,1.4-3,3l0,0
						C815.2,597.7,816.6,599,818.3,599z"/>
				</g>
				<polygon class="st22" points="1029.5,613.2 1005.3,613.9 1029.5,614.3 				"/>
				<polygon class="st22" points="1029.5,603.9 972,604.6 1029.5,605 				"/>
			</g>
			<g>
				<path class="st12" d="M972.6,604.5c0,0,2.5,1.7,3.3,4.6c0.1,0.5,0.2,1,0.3,1.6c0.1,3.8,0,12.4,0,12.4l7.3-4.3l7.3,4.3v-11.7
					c0-2.2-0.6-4.4-1.8-5.8c-0.6-0.7-1.2-1.2-2-1.2H972.6z"/>
				<path class="st23" d="M972.6,604.5c0,0,2.5,1.7,3.3,4.6l14.6,0.2c0,0-0.6-4.1-3.6-4.8H972.6z"/>
			</g>
		</g>
		<g>
			<g>
				<g>
					<path class="st20" d="M837.1,541.1h155.8v-59.6H836.5c-15.4,0-27.9,12.5-27.9,27.9v3.1C808.5,528.3,821.3,541.1,837.1,541.1z"
						/>
					<path class="st24" d="M812.3,504.6v12.8c0,5.5,3.1,10.2,7.5,12.8c2.2,1.2,4.7,2,7.4,2h174.3c2,0,3.7,1.7,3.7,3.7v1.5
						c0,2-1.7,3.7-3.7,3.7H700.4c-8.6,0-16.3-4.3-20.9-10.9c-2.9-4.1-4.6-9.2-4.6-14.6v-10.1c0-3.7,0.9-7.3,2.4-10.4
						c3.9-8,12.1-13.5,21.6-13.5h302.7c2,0,3.7,1.7,3.7,3.7v1.5c0,2-1.7,3.7-3.7,3.7H826.7c-4.2,0-8,1.8-10.6,4.6
						C813.8,497.5,812.3,500.9,812.3,504.6z"/>
				</g>
				<polygon class="st22" points="992.9,511.3 970.5,512.3 992.9,512.9 				"/>
				<polygon class="st22" points="992.9,497.6 939.7,498.6 992.9,499.2 				"/>
			</g>
			<g>
				<path class="st8" d="M940.3,498.4c0,0,3.5,1.9,4.7,5c0.2,0.5,0.3,1.1,0.4,1.7c0.2,4.1,0,13.5,0,13.5l10.4-4.7l10.3,4.7v-12.7
					c0-2.4-0.9-4.7-2.5-6.2c-0.8-0.7-1.8-1.3-2.9-1.3H940.3z"/>
				<path class="st25" d="M940.3,498.4c0,0,3.5,1.9,4.7,5l20.8,0.2c0,0-0.8-4.4-5.1-5.2H940.3z"/>
			</g>
		</g>
	</g>
	<g>
		<g>
			<path class="st16" d="M835.1,459.4c9.2,16,20.7,22.2,20.7,22.2H904C904,481.6,828.1,447.2,835.1,459.4z"/>
			<g>
				<path class="st18" d="M872.1,583.1c1.3,1.4,1.4,3,0.8,4.8c0,0,0,0,0,0c-1.1,3.2-4.9,6.7-9.3,10.2c-0.6,0.5-1.1,0.9-1.5,1.2
					c-0.1,0.1-0.2,0.2-0.3,0.3c-0.1,0.1-0.2,0.2-0.3,0.2c-4.1,3.8-2.6,4.7-9.9,12.3c-8.4,8.7-14.2,8.9-15.8,8.1
					c-1.4-0.7,1.4-5.3,4.6-10.5c0.2-0.3,0.3-0.5,0.5-0.8c0.4-0.7,0.8-1.4,1.2-2.1c3.7-6.3,2.7-9.2,1.9-18.6
					C843.1,580.8,832,546,832,546l16.1-2.8c0,0,4.9,27.7,10.2,32c2.9,2.3,6.1,2.3,8.8,4c0.2,0.1,0.4,0.2,0.6,0.4
					C869.2,580.6,870.8,581.7,872.1,583.1z"/>
				<path class="st16" d="M872.1,583.1c1.3,1.4,1.4,3,0.8,4.8c0,0,0,0,0,0c-1.4,3.2-5.1,6.7-9.4,10.2c-0.6,0.5-1,0.9-1.5,1.3
					c-0.1,0.1-0.2,0.2-0.3,0.3c-0.1,0.1-0.2,0.2-0.3,0.2c-4.1,3.8-2.6,4.7-9.9,12.3c-8.4,8.7-14.2,8.9-15.8,8.1
					c-1.4-0.7,1.4-5.3,4.6-10.5c1.6-0.6,9.2-3.7,15-11c5.1-6.5,8.4-14.8,11.9-19.6c0.2,0.1,0.4,0.2,0.6,0.4
					C869.2,580.6,870.8,581.7,872.1,583.1z"/>
				<path class="st18" d="M742.2,573.1c-1,5-8.1,4.1-16,2.2s-6,0.4-17.3-0.9c-11.3-1.2-14.7-5.5-15-7.1c-0.3-1.5,5.3-2,11.2-2.7
					c0.8-0.1,1.5-0.2,2.3-0.3c6.7-0.8,11.7-5.2,17.8-8.8c5.8-3.4,14.5-17.2,14.5-17.2l15.5,1.2c0,0-8.1,12.3-11.2,17.7
					c-1.8,3.2-1.7,7.3-1.5,10.5C742.4,569.5,742.5,571.3,742.2,573.1z"/>
				<path class="st16" d="M726.2,575.3c-7.9-1.9-6,0.4-17.3-0.9c-11.3-1.2-14.7-5.5-15-7.1c-0.3-1.5,5.3-2,11.2-2.7l0.1,0.1
					c0,0,6.8,4.8,16.1,5c7.6,0.2,15.7-2,21-1.9c0.1,1.7,0.2,3.5-0.1,5.3C741.2,578,734.1,577.2,726.2,575.3z"/>
				<path class="st16" d="M801.4,474.2l14.5,38.9l18.9,50.8c0,0,5.1,0.5,10-0.9c4.5-1.3,9.7-4.7,9.7-4.7s-5.2-54.5-15-85.8
					c-2.5-8-5.3-14.5-8.4-18.2C815.9,436.4,801.4,474.2,801.4,474.2z"/>
				<path class="st15" d="M816.1,412.5c9.5-3.1,36.5,0.9,63.6,6.2l5.7-9.4l58.6-4.6c0,0,19.3,42.9,8.7,70.2c-1.6,4-4.6,6.6-9.9,6.7
					c0,0-0.9,0-0.9,0c0,0-34.9,0-46.2,0c-29.1,0-61.7-20-65.9-20.9c-6.9-1.4-9.6,12.4-16.5,26.9c-6.9,14.5-64.7,64-64.7,64
					s-8.9,0.1-12.6-1.3c-3.9-1.5-5.4-3.4-5.4-3.4S794.7,419.4,816.1,412.5z"/>
				<path class="st16" d="M885.7,328.6c20.9,11.5,63.2,35.3,63.4,35.1c0,0,15.6,5.9,24.4,0c14.7-9.8,22.6-36.1-4.3-58.7
					c-13.4-11.3-22.9-14-24.4-32c-0.8-9.8-14.1-42-36.3-39c-1.9,0.2-13.3,0.8-20.8,4.7C868.5,248.7,854.4,324.2,885.7,328.6z"/>
				<path class="st18" d="M903.2,318.8c-0.1,0.1,10.3,3.6,17.2,0.5c6.5-2.9,11.4-13.6,11.4-13.6c-3-0.1-6.2-2.7-8.7-19.7l-1.3,0.5
					l-21.2,7.6c0,0,1.5,6.8,2.5,13.3C903.9,312.8,904.4,318.1,903.2,318.8z"/>
				<path class="st26" d="M900.5,294.1c0,0,1.5,6.8,2.5,13.3c12.2-2.2,17-14.3,18.7-20.9L900.5,294.1z"/>
				<path class="st18" d="M897.4,300.9c0,0,29-3.9,26.3-21.9c-2.7-18-0.8-30.7-19.4-29c-18.6,1.7-21.2,9.1-21.8,15.4
					C881.9,271.6,889.8,301.4,897.4,300.9z"/>
				<path class="st16" d="M883.6,255.5c0,0,18.6,16,31.2,17.3s17.4-2.8,17.4-2.8s-7.5-6.2-11.9-16.2c-1.3-2.9-4.1-5-7.3-5.2
					C903.9,247.8,886.8,247.5,883.6,255.5z"/>
				<path class="st16" d="M895.2,254c0,0-6.2,6-8.2,10.5c-1.9,4.3-2.5,14.6-1,18.7c0,0-9.7-18.8-4.2-28
					C887.7,245.5,895.2,254,895.2,254z"/>
				<path class="st5" d="M878.7,361.6c0.9,58.8,0.2,46.5,6.7,52.1c1.5,1.3,5.9,2.1,11.6,2.5c18,1.2,49.7-1.8,50.9-5.1
					c4.2-11.5,1.2-15.1,4.7-32.7c0.4-1.9,0.8-3.9,1.3-6.1c2.9-12.1,5.7-16.2-4.6-35.7c-9.3-17.6-19-31.9-19.8-31.4
					c-24.5,14.6-26.5,2.3-26.5,2.3S878.3,332.9,878.7,361.6z"/>
				<path class="st15" d="M815.9,513.1l18.9,50.8c0,0,5.1,0.5,10-0.9c4.5-1.3,9.7-4.7,9.7-4.7s-5.2-54.5-15-85.8L815.9,513.1z"/>
				<path class="st5" d="M903.1,307.4c0,0-25.3,4.3-28.2,15.2c-3,10.9-20.4,74.8-20.4,74.8s12.8,2.3,18.8-3.6
					c5.9-5.9,20.6-55,20.6-55L903.1,307.4z"/>
				<path class="st27" d="M897.1,416.2c18,1.2,49.7-1.8,50.9-5.1c4.2-11.5,1.2-15.1,4.7-32.7l-8.7-24.5c0,0,1.4,27.3-6.6,34.4
					c-8,7.2-32.9,13.8-36.8,19.8C898.7,411,897.4,413.9,897.1,416.2z"/>
				<path class="st18" d="M917.7,404.7c0,0-17.8-4-20.6-2.4c-2.9,1.6-9.9,7.3-10.8,9.3c-0.9,2,6.4-1.5,8.7-2.2
					c1.5-0.4,5.6,1,7.6,1.7c8.4,2.8,13.5,1.4,13.5,1.4L917.7,404.7z"/>
				<path class="st5" d="M929.6,305.1c0,0,23.9,1.5,32.1,13c11.6,16.2,34.7,85.4,21.5,94.6c-14.9,10.4-67.8,2.7-67.8,2.7
					s-1.8-8.2,0.7-12.2c2.4-4,42.2-10.4,44.1-12.2c1.8-1.8-23-35.8-23-41.3C937.2,344.1,929.6,305.1,929.6,305.1z"/>
				<path class="st18" d="M896.2,407.3c0,0-3.7,4.8-4.9,5.4c-1.2,0.6-2,0.4-2,0.4l2.5-4.5L896.2,407.3z"/>
				<path class="st18" d="M897.1,402.3l-10.8,5.3c0,0,0.5,0.8,1.8,0.7c1.3-0.1,4.7-1.3,4.7-1.3L897.1,402.3z"/>
			</g>
			<g>
				<g>
					<polygon class="st8" points="891.2,420 805.6,420 779.8,355.9 865.3,355.9 					"/>
					<polygon class="st25" points="804.6,417.5 917.7,417.5 917.7,420 805.6,420 					"/>
				</g>
				<path class="st5" d="M827.2,388c-0.6-2.3,0.7-4.1,2.9-4.1c2.3,0,4.6,1.8,5.2,4.1c0.6,2.3-0.7,4.1-2.9,4.1
					C830.2,392.1,827.9,390.2,827.2,388z"/>
			</g>
		</g>
	</g>
	<g>
		<g>
			<path class="st14" d="M112.8,445.2l-1.8,1.3c-1.9,1.4-4.6,0.9-6-1.1l-10.6-15.3c-1.3-1.9-0.9-4.6,1.1-6l2.6-1.8
				c0.4-0.3,0.9-0.2,1.2,0.2c0.3,0.4,0.2,0.9-0.2,1.2l-2.6,1.8c-1.2,0.8-1.5,2.5-0.7,3.6l10.6,15.3c0.8,1.2,2.5,1.5,3.6,0.7l1.8-1.3
				c1.2-0.8,1.5-2.5,0.7-3.6l-7-10.2c-0.3-0.4-0.2-0.9,0.2-1.2c0.4-0.3,0.9-0.2,1.2,0.2l7,10.2C115.2,441.2,114.7,443.8,112.8,445.2
				z"/>
		</g>
		<g>
			<path class="st14" d="M124.4,460.3l-3.3,2.3c-3,2.1-7.3,1.2-9.6-2.1l-16-23c-0.3-0.4-0.2-0.9,0.2-1.2c0.4-0.3,0.9-0.2,1.2,0.2
				l16,23c1.7,2.5,5,3.2,7.3,1.7l3.3-2.3c2.3-1.6,2.7-4.9,1-7.4l-18.2-26.2c-1.7-2.5-5-3.2-7.3-1.7c-0.4,0.3-0.9,0.2-1.2-0.2
				c-0.3-0.4-0.2-0.9,0.2-1.2c3-2.1,7.3-1.2,9.6,2.1l18.2,26.2C128.1,453.8,127.5,458.2,124.4,460.3z"/>
		</g>
	</g>
	<g>
		<g>
			<path class="st14" d="M146.4,580.5l0.4,3.2c0.4,3.5-2.1,6.6-5.5,7l-27.2,3.3c-3.5,0.4-6.6-2.1-7-5.5l-0.6-4.6
				c-0.1-0.7,0.4-1.3,1.1-1.4c0.7-0.1,1.3,0.4,1.4,1.1l0.6,4.6c0.3,2.1,2.2,3.6,4.3,3.4l27.2-3.3c2.1-0.3,3.6-2.2,3.4-4.3l-0.4-3.2
				c-0.3-2.1-2.2-3.6-4.3-3.4l-18.1,2.2c-0.7,0.1-1.3-0.4-1.4-1.1c-0.1-0.7,0.4-1.3,1.1-1.4l18.1-2.2
				C142.8,574.5,146,577,146.4,580.5z"/>
		</g>
		<g>
			<path class="st14" d="M174,575.7l0.7,5.8c0.7,5.4-3.5,10.4-9.3,11.1l-40.9,5c-0.7,0.1-1.3-0.4-1.4-1.1c-0.1-0.7,0.4-1.3,1.1-1.4
				l40.9-5c4.4-0.5,7.6-4.3,7.1-8.3l-0.7-5.8c-0.5-4-4.5-6.9-8.9-6.4l-46.6,5.7c-4.4,0.5-7.6,4.3-7.1,8.3c0.1,0.7-0.4,1.3-1.1,1.4
				c-0.7,0.1-1.3-0.4-1.4-1.1c-0.7-5.4,3.5-10.4,9.3-11.1l46.6-5.7C168.1,566.5,173.3,570.3,174,575.7z"/>
		</g>
	</g>
	
		<ellipse transform="matrix(0.2298 -0.9732 0.9732 0.2298 282.3397 747.8715)" class="st8" cx="613.7" cy="195.6" rx="3.8" ry="3.8"/>
</g>
</svg>
